<mxfile host="65bd71144e">
    <diagram id="6-Ifjim4jKsM7Pc2sXjN" name="Page-1">
        <mxGraphModel dx="966" dy="960" grid="1" gridSize="10" guides="1" tooltips="1" connect="1" arrows="1" fold="1" page="1" pageScale="1" pageWidth="850" pageHeight="1100" math="0" shadow="0">
            <root>
                <mxCell id="0"/>
                <mxCell id="1" parent="0"/>
                <mxCell id="10" value="" style="shape=stencil(rZzbchy5DYafRrddPLN5vdm8x1atN1bFsbe8zuntQ0bhzPQPzkepKneyBbBJEPhxpF7iT398/uX3Ty/B/fHj+7e/fvrn668/Pr/EP72E8Pr186fvrz/6Ty/x55f402/fvn/6y/dvf//669u/f/9lUI6f/vbtH2OFf73x+XS0NriC+/fb/7gjpf/+x5/f6L+8fn2kz0dS+hyBvh7hFPoK6wd/uCr0zQF9Oorup51A345cLvT9g+U5feznPYXew/5TOKIX+gD7T+2ouj7R52r37+tz+pIP35Qe7quGIySVD8iznkc09CCfMx6xKn0A+npE3b+D/beuvk7PC+u3YO/3fxe4po9H1f1UkH9LR77KJxwF5Nnpz+v66QgZ6PO8nklfjkL7yXO52/7d4ejAeeLBjSEdkSSajxqvDG1ixpqhHP6q0qF/k7ZUpggnQ+yXQELqIHRVungenhnO65bS5tDnkcKFIXexgh13hiYMeYphzdCOeL243KGDttQUGUs8CphmZ2hX6CoVVcO72xlvHG26k/dydMCpJKe+4FWbatdgAoB2nFfB1ooeasjpKth6k9wzBrGI07NNtyNcBdtRMLM2tauCn5tDn+pFznKcdNfnka/KcXYNJvUzCt6RlhxnZxCba57V72aSN4aIrqQzuKuRdvAMdA9VY50BbqR8VZWvQw8iU8cNOXT3X/wF0db7Jt/LcDK6doasDCd5iDoDrhtDw5BnMGRliHwPZ1SGk9S7atAwYIHOUEwU5jZ4nOaWHz9BcvUaCG/21COZkgwDhUph/vpRTLClDnSpGAZQ1+oXcqXooUeTzisDaV8+jQU1tNEcF2IlnEnnPOKjflPEbSKsAYagfanjlvlCACn14EIvrkMVhBuxGIOoeNM9K/EGZ+imYzRSqhi3xqBeccfgjXpXvIfo5q8fGeAeOoPEiRuGcFPmxzMwgySrnSFT9nka6KuIlZ1BxVp4S6fZUkHlC3U6/gcnV0GXOoNkBJ2BfFbPMJKINXGOnk3skDBg6jmP9x9iCJoVjzyK7sEqXzcpOIM/J7g/xg5UKLkpwjvvwd+SnoebptTexxn/PzBkiteD1laG8gEu9dQwmy1h7DBz8wf6BoFuXZyggTWUGTY/0lO1xCheQcRIC/pKsHoUc17yblETga4ThC/R6FCPcEGeUYsxo7xBoK0p4gjqQUeNXfaghqzGFD964kNm2Y32CnY9FUugoHkmCDf6hIlVVv3s+aqH+0paBugpdKVg5MiSo5+znPZMntf95DBz8Gf3ddXPVNGAoxp8ChiuBb2vHspQ1BxU/jEhfY8RrqjbfXomiFN7CRWzVKeh3V0Dn9CL/fYvkn46UwtrWBZy6ry7V6BqpzPF2jSzt2f0UmoLGDc6LRZ2hCd9djNsvdkvVkacMa/dbq63mxHcTOkoYnxpVg+oauaoftras5u9ru5mXv5M0ZyQR3K8tslCsBw0mOFcNy1WB/LudLWDQ8mMqV05Dqy8RsSOo56kYZJDrbFxmMP4eRSrdf+RG1ZJ10+wn4HJRejJZfXbinreAi6iG1HU9SmEGdG8asMJkDDUISo95SNFQ3OHoDDoTUOP5FOsaTXef9EGEbo4o/7cgLLn5QajlSc33Ox9ecaGMiOo99NrA3Ozn2jkA/Aw6I18+H6j4gM2eFf0ZL9Fa2AOQ7AhH9W3c3Nfig8b+zL4s7PHoPQbe1T5bPZv4H8jH2uPrA+WfrMfo/+sP9k0nHk/EgNv9T8bPNnYl9H//yd9x3/FZ0qpR3/Z4D/RRw2UtgMdSfdDbaDhf9UeM+j/8O+6PqU4q/gB6zimrumwZ2TqRA4zBKOdHJ0sQjcKfoI2ixy2Eb111VQIdLMg/HBTSG6BEAzLqV76maw9I7+q5S7clzGXXTIhq+9SFel97hIhOeouzYrXW91mcepxw0byUgXzXEx16oE8zw04LcuPLBqFL03VkaWD9L0iQuCqkNcIaVQZ0Eykwj6qGASBZvokYqcwqF3Fii4xTuk9Vnlops0Mt3BbJGmElLnKkHREalTBYP1b5f2xyoZVvyBVOa7iZa3CjCoh7+eqz7VhFTWZ4YuIIVjSKu1ZcSYv6qhQczjTFjVia1z1i6b1nWZ14wm9ePTG81pR9Xk0Nrg+YXpk2GRWxzIGxGA/JuNqPDNXZwL9QI8zSzMgfSe9d6bnXWZRZM1g6q6t8BRuNJ3QMn3OmiFrFtXvmMJ4X9WIR2uD6ixmAK6xTw03J/egppi5BHPPCWt6y7YjAenQPNMJRQaTTHUGUo3hiUzHiLCihw7agssYb3eGZBrMmy/oQNEthVszNDPYVXC0pjMowPAUVWeohoE6octRAoKMziA+bcfgTWuwzrtfM6wGLjL1dlYjHciQp5d875aKuemKQBltk5wnNJKVEk/KpKQzqp2B5rXHeFBQBjp0jprPj3kiihbstE/DM4whqqAMNOO9HNOinHU5CEZgPEbNzAgfeaDlMBsOzXoj1sZOdDWQR4XsMfP3sS9UTbs2h26rQ1OtfzCYm6ZIdRikmU0jH3e34AeGzTiofoGTi3EGA2Rhw2Cimc2UbbUDSB+bgU0zJXjGoKgRsWjYrBflduAYXpZ7cPxO5dQAawxgbya2JWsoOPI3ZsKFIePTosXUecSCzoCtq8Wdng2oaTRTed50wJakbpUn582jh8pR5cCIK1TuHyQow2ay2EwhFh4CaE3zn/Fwg5+GSNw6noawLskDmpwZl4x6j+ctH0K+lLCN2hnE4sYTHR7xFinFzUusrAnHfTzsGYN22hrbQ1Z7GE+lCATMOLXfiDVp6amw100aVCZM+5opTQTGGDNA5rH5OgoR2oykylkHUfP6j7Ro9VqQHMPqNSJGYovXjrT+6jUlJTLFahDOiaxeg5KrXb02pUrn6jUrmczqtWykSufiNS7pZ0gKXB4rVffe+52exrO9mYV2WKn1pvTkEIPGa2ulJ/v1Jt1xOAftzQClQ8/hzYDjpjln8IeHUQa9Nuco+VrSU9VpRQ/6eR+nu9NvmoWntrioEuzN2xKH86vjfoPSs/yb2T/V/T76un9L33+4/ymB316/fHn7SwSPv9c/PdD/6+3PFsSf/wM=);lineShape=1;shadow=0;fontStyle=0;fillColor=#f5f5f5;fontColor=#333333;strokeColor=#666666;" vertex="1" parent="1">
                    <mxGeometry x="177.4059372166148" y="106.50735126875236" width="418.33142499261" height="444.7761552398375" as="geometry"/>
                </mxCell>
                <mxCell id="11" value="" style="shape=stencil(lVhJchsxDHyNrihwB89O8g9XWY5VcSyX7Gy/DyYqOiI405Ru8hg9QwKNxrILd29P96/7nee399Px2/7X4eH9aRc+7bw/vDztT4d3/bULn3fh7vF42n89HX+8PJz/fr1fLJdf348/lzf8PuNqpBgWlOc/5ydMzv978OVs/3x4ubRPlJOxLwXYVxLf2XuqddveMRNzB0gUIviAkO8vIJQZXyB29s5TCAAQKPc3cIWyAICn0n/BR3LoSI5i7gCBqbptgFTi2gNK++Y6INovxEg1bQNKpSJ9FByMW0nEpQcIJQRgCv2R8scrVgE5WCbpKzyIQ0o2cCVCasRMpadeEYrgDur12HtJHAycr83rH4BIBcRBmVN7LkluT9YBeoD+DiJUwJFcbf9ugKoKAOLgxFJD+RuAZCggGICHgVOAdxZQQYoqwPVe0qSNINIKyNkCSr4JoDmN75DYAjJ2q/VSIo/vENgCJnfwxksZSusCYAuYxaEXgVooIfIpoM8HlXNUfhZAsICMAakXAa1IjI7kKVcLQFLpVKtlAABqCEnvpIuat658lG4DxFbQLk8EdEwL4HhlwFW2orTYAyLxELTaVGrDnrO1F8BsbUGG9wsghV95fwERC431l/bgPHnlvkjlxfZgE3ulXOZbDqSkjiMAtWHBtnkTl7pIfsgzFDMF8EgipHdhEHnMOucouwGAetUVr8Kep6nntXmZVniH87KOeYmKDoUhaEi6uNXtS3ugjUNrvsQY6sTIa0H1g9JwfsjSG+2HHnVSC5LtmifFRu2jtUfVTO2N/3G5TINO43qcBj7ggq8Nh3k/7ijS0KfhliW1MejKnijabnnSdMWhEuOuLg38wW2jDhSGz7gvTY2NVza+WjeMPe6sy1BncOtebb4vswGSXG9nNJk0gCqJfYYt8w0aV+IwrjhYBUJsGXU5oyFOBOLeSZMpUAddU8mWORN4NRU7788mWa3GPe8ms3Iutk2eTeOOpM/MGGGtLJliD5hsFNTr5tKTnUWpNjknWxFhmz3L3gW4VTyVPnCTzY6kpibXrY6U/HYpAuVU7U02BNgeKPXNZMCwLVUPGb34aLS37MOw68MREDH2iNfL+dnao7Y32BaQW65ubbHMLMewfKv/nfUn9H8hsf6E9tUOZvg8quZuOD+Q9zroBDeHbW0q4xAvUP6WapqtPVCVm3fFU3v98X8x/Xh4fj7vtS//bxfZ+ui8BA+f/wI=);lineShape=1;shadow=0;fontStyle=0;fillColor=#f5f5f5;fontColor=#333333;strokeColor=#666666;" vertex="1" parent="1">
                    <mxGeometry x="350.0628510140459" y="109.43581688344636" width="7.945137500099236" height="445.96840592249157" as="geometry"/>
                </mxCell>
                <mxCell id="12" value="" style="shape=stencil(lVjbUlsxDPyavGpsy9dn2v4HM4SSKSUM0NvfV27qNJJ71uEtBCmW1tJ6pR3fvD7cPu93wb2+vRy/7H8c7t4edvxhF8Lh6WH/cniTTzv+uOOb++PL/vPL8dvT3env59tu2T99PX7vv/Dz5OfIx+4U3K/TFyGT4z/ffDrZPx6eLuw9FWft2W/bRwpF2zO1um2fKVdt70eE/4/HkcvKwRcqGThEe4KXDNK2g0D0F5ALh9qAQ6aoMfKNGITETN6AFCiDpLlRNbdWiAu4hUJeo8SBSth2SJG4KYfoKAGUsienQ4qNIsghy01rWFOGJxRPySuHHKg54JBs7eVCFdR2qcT64kqAxVclaR1SyRRASDVQ0rCWBtutRlt8ReoXFF9NA8Rz0ouQpDS0Q0rUUEiVioY1MlVwQnMUgy4+DzmgBXIaJSEBBkk3CUCf4MUB5NAEJd0P0nCAxVqmoiMSUkApl/Fz54DIg3ZrlbwmpUgN9LPYWxKTA1DCbZx/QWIFZSzdazjJrRyK4aRKCYfUdEhCMRCkNqpmOLRIETBGd9Ahyb2gXugOmgA6bjhpQ8TeLSqj2Urq34DHYcZVLj9iXM0TLdW7qI2sr1r6aXERWXdPPZ95rYOQEiDW7qBRqjw4YTNpzZPVDarddNDF1JkY51ANE8s9IBZrQyVcnOAX1TflUBALtEESFygxhrU1ew+oRy+q+Vwby/o2R0gxxYWDrg0pV6SWuoPmVmmItLgIc0KDOqD/21sHSMdSTMmG1BbV523SCwfbo3E8GVe2nFxcxbDaHsWasjvoDupiZRHSux10SIlXhB81rFyw0pCe17CKLk74oTaqVdR+QCdUq7zlHYXSZJYOeYiVK7WJT1B5d/FjxEMdOnZTXk1DIpoeRMAZtcEZP3JuRHzWAgWiJCK0al5KbejYTZmrb1rmCUa6WFAy5Orhi9KL2TzUDr67fRiY9QyopXncaJ4yGpmmgUZgyO8ameRFCSDpeSjrZwLWmMc+mbHQBDQPljnC+aSPrhpWGSwdKL55OI6VAoCVJykQAwypD/hm/K5Q/8wrBE7kQMfNSwrGK4R5DSIOAZBAX7QYqmSoTqZNDi92FLb0+sYB1Oq0iZIxFGE6bbrEHlG9G8r/8vdB/BM+ET8lYq81QxRCwvaGU8+TwZb99BZWHP9UckglzfYMH4U5Hj80zXX5hrMsuw5PmT8Djt8MuAUS0VQPi5f/vZvVtb18+LfGvT88Pp62wJf/t2tf+eq0MuaPvwE=);lineShape=1;shadow=0;fontStyle=0;fillColor=#f5f5f5;fontColor=#333333;strokeColor=#666666;" vertex="1" parent="1">
                    <mxGeometry x="176.43808922214657" y="203.74928701250758" width="405.2913325973086" height="6.472395686027767" as="geometry"/>
                </mxCell>
                <mxCell id="13" value="" style="shape=stencil(7VrLbhw3EPyavRIkm68+O85/GLAcLaJIhizn8fdpYsPZYXGnhAAB4sMCPshS18x0d/WTPMmHb4+fvj6cov/29vry68Mf589vjyf56RTj+fnx4fX8Zj+d5ONJPnx5eX345fXl+/Pny/+/fuqS/affXn7vT/jzgisu+g6K/q/LL2Jy/b/27+eL/NP5eSefXS2zvDqvTD7qJC/ihDw/uZpn+eZKY/I5TvIpO1/Y93iZ5HN0ierb6iRfvMvhWL64Nn9/aU79sXx1eX5+tScQfZvLs7+a+Ssfyyvap6lT8vzgnc4GUqEGCtFVAJgP2RsiUkjNKUQFA5SMACE+MIAoAjIhhQG8R0BlgIBmNcA/djs0KyhdBhOPALICiFkVA6fLExXUhbpoQIm3OqElJh8XCxUiX50GlE/EydXVhPKBsKgNUu54HUniUkxc6l1iLPWYWVoesXrEIT9rXC1VVM7SWYUahlNuA8SFGVDEZaJzSKh0NiewWLY/z4GTKlfashvk643otwHNycxTKyCF8CLa86CiVdcYwLLFbCX7jRIrWc1pc2jaRzYSy52r8xu63YjjxLsyW8lc6YkOYp80K23sqiRri7okC4DV2YRmtU9ink4Nk3D3PdHBCrGfM4y5kvmhc3NOAVZ9A6vlyyeJKU0irgQXZk9LdZ4kMYuvOLM1Bd4u5PHF+/6FcKkUl2YdUqF+MEAuCGCe7m8AHSqtJAaIggDW45WlqepZg5k1Y4gaoDIrpSXN1NGYHQHiksiU6SCLWbcKdhtgSSUvn8SUXrqYrjR7QxhfvDcr0yFg82kAVhMNIIsOnr+hzTUuCa3qprSHiLPGg31SdHF+g8T33qCQNbY8ckgNSMbNBfZJZeSIXW4VlmbseTP5Mq0n1Q+TbC+gzWcV1MCPcnEknwrIs/bZ5JuAvLBWb6klfjSjR/IwVHk6MNSlMPjR39+WL1h5PK22Jl+W55OMWiv22p7O2CZfAsgn9v0VKW0EYXwwvqG/2MzZ5aF/oa22yXvkJwvJtvCh0Tre6hKRZSSm2wAdO4Rdp8Dqh1pjvaQh1rFdh+QthD0tOH1amX1sFSWQoLFxDkhtYcFyr9ZBgs2qQlsLbTiYm90YL3SJG1W6rLmOgDsAY0afAQsC2LqpD/owRjba4vVBXxGQGMC6nYaAyMxasCwbwLM31MVKjeYvXWakDmBcUpxVdQvxIwB0O91KzHHGnMWslQ2G3i87GOX8Vuwi7Tes7HQlAgIKe8M2j+8ArGXrjlh0YCO9uRrsurPDEZvaEnOsUe18jQioPDPhJknphNGDVBEQ3wEsfKWJJmP+NkDmQQod1dU1R4Cy8DUwgtdlx9ho06BL0e0Azr62BilLNIrLmK70fwpIOIep5zoIjoZWg1jroBEzk1U51gvYB0Cl7jM4aVZbwznMKjVdfNZRl/cjCeFSW0q7dRvKVqXRZeivjI6sIVZcxjYuX5Z2hq5i7gPDfWD4kQeG7l+IMLoTrhEXHYX22n3Anp9vEzwL+esh325HwBhdKhZZm/nprqbigkr4wWUHzD6wtEXXRxVPnBLf8P6gq8iEgPsq8r6K3J/b7zbtiR0vNCyaKdAynstYEWwRZ0oTamTBT7KYZkpbpwJ+6PcN2CFMGX7dAIFyKQkeSloiY6VKFOkdtpn9NiDhwN1PHdnZVhx+3XVHbP/aj7YhGStNAn0ZBEeGQvdJMSE1YqNrCatPcAIoQh1nbopAPk+5FLZVzS4eWE0My3iRM61xoaLjLPGwJBAKKl35cVvIyNbKtz0hYx9mvTeb6I1qGVYrnh4v3G+3DMD9dsssHxcL/Z+3WwpeC7PJm9F0e9ouDthuIeExdd/ZsyyP9rcRSIl8xOsIRekEFhZ5T5OXxxapX/sjcb8sI/uxPPGvx4HnnR2Bx928CF0ibzchtoLDl6MB7yF0D7IshPHYNwQsL457RDt5ehVpOXQVeugacTMVt5sVB/Lr8wPlJ2S4Ls8aqWWlI3Q9mHCdGIUu2PNyDVdoEcjIn25Peg1XF//SBh7zg8mz+P2314jfl7cfrneWv5yfni5Xnvd/xzvO9qvL/Wj5+Dc=);lineShape=1;shadow=0;fontStyle=0;fillColor=#f5f5f5;fontColor=#333333;strokeColor=#666666;" vertex="1" parent="1">
                    <mxGeometry x="185.14227305099575" y="150.3709181191507" width="22.95219588003215" height="52.22896309506939" as="geometry"/>
                </mxCell>
                <mxCell id="14" value="a" style="shape=stencil(lVjZUhsxEPwav05JGp3PhPwHVZjgCsGUMTn+Pq0YOatZuynezO40q5nuubTRm9fHu5ftJrjX42H/fftrd3983OiXTQi758ftYXfEr43ebvTmYX/Yfjvs357vT3+/3HXL/uvH/mf/D79PuCROOyi4P+8PnGj79+Tryf5p97yw90lCsoBEAEFFwwSITVy9DlAvZT5SjJIdAWQpcQY4qQQQveT5C5okEx9iktomQGiSiA9wUf0MUAnxOiB5C/BFXKGAnGcAngQCcOLnKBXxzGe8NrxJJAfSMlgd9lmcJ/ZB4kwCQpqJjookNzscpRIOcF6dAcFTWXSlzhwopE1cwBfK7DKElxMBVCmzjkCjZ7mg0mYSsh/pdJk1J24GFOSCEkCWZGTRuFJ1pMoA1DwCfRGAExthNC+NRClX8TNxLYkSaZSVVFum2q7Q3sx0U/HkC7VImatecxSA12H+QvUSyZEAMEeqII4wjSCaKAEQGCDYI4HpQphGTEyZBCAyAHqDswAlTIMmE9b+BVJkWl0VsTZS6jKgrXhAlEjGAVCTBTQibwCayQdPCxkAeVZrPTNzzWlTZgAozAeUSuODDmau8fDeaxYAyjR6QV0BmNNBWl4diTGNblas05UnkBkbAKDic3aSAXGF8XBWzgLgWJTOGbzQUmRfODeohbxZj+tla5WiiRWBaMP6cYqGdYoyLZURxAUgM2nUkV+LKHmecbYDoe2SKHmHrmg+gTZKmPs8osfJdDnolbkN7cxeoHwmkhE12axG5BJp7WiLJrALty533mbnXMSapUQOdmQC/UzhKdqBBhJm+0YfQ03hKKP2XB6ZcOJV0rFhADOWobqg9hCqMdiaHMKI09gk6q02Eq80Ptso9Y2GaANbmRETRldlKZGkrIZjNtD4aocBr0OP16ZpM98XSjTGf9MhAo2R1tFwhr2jxRhCytHak1xIq2EGLYxkW6p2z82jIV22b3bw7gscCRAAZp/BishGygSPV0toIxwjOfNcYfoCxABuhOQMKLR0Y9swoohKWcCqbu4nwCOrwxrtkXBIuiZWO8pgw/EsOaMdWnvcWAmziyvsWY3Usews7JUoaVWDYe+JvR/9e+EwWxGdbbewjyTzV6sP7NlNwKrVpkD7GuyztXf0PNZfT2+snB3o+5LOiq8d2hLf3IId5/sNGrtZGfpd2EdWWT55pfexPX78vz982D09na4fl+/tfSMene4q9fYv);lineShape=1;shadow=0;fontStyle=0;fillColor=#f5f5f5;fontColor=#333333;strokeColor=#666666;" vertex="1" parent="1">
                    <mxGeometry x="212.31217093150872" y="154.0562859822188" width="14.446027199147693" height="34.24150207107971" as="geometry"/>
                </mxCell>
                <mxCell id="15" value="" style="shape=stencil(7VrLbhw3EPyavTZINp9nx/kPAZajRWTJkJXE/ns3veB4WJythW8OoJu02zVkv6t79qTvvjzcfb4/Bffl9eX57/v/zh9eH076xymE89PD/cv51f466fuTvvv4/HL/18vzP08fLv9/vuuS/a9Pz//2J3y94FRc7KDgvl0+8El8+/HJnxf5x/PTTr5IrLN8lhKvy3sntUyA4EQrAaiEPAOSNEcASZxOAA0S2ZWy5FlnbaIMUKS1CRCTFKZDEzdbKXnxSgFtvlIK0m4AZrMmFSV+M0BtCKiJAjLoECVwpXUBZGbWimY1AFW6SgIrJW7WKi4hIHjq6bQAWDoYwBUEOGZWC76ESld2pSxhsVJkfsiYDwZwTIckFRyn3HF2pfmEmCWyExaltY6Av2ZWhZx2o1Bd87QPc9XwEnh4eyhklkDhOsDKVvYToIwnHMuHEZqbkUYlvCYfKsjHTOUTPp952eTrXFct/0lZta9DAfnE9FUpHuQj0zeiA0yeOMzks+J9SESEhLlvFyS1wuSjQ3uSvDT5jP5S5q+E9o9SuHyDNKaVqD8f6oRkFs9Nypwx1lLIfdSPFN91fqawdWG4kHkgM4BFBHjMjbpxDDCLQEhnmjOqC6DRWmpXSgu3YFFhFwA+1dOeuEHLsMmeUJG8sRvXOU4bzfsYkLFZYpO8jwXz3iovkTdm4+Y48tSk1ozSXCe4z1Id6u0YaiUK54CAYLyBWDTnkYhbZoZR6485sJc0q5zKiJNjgGUK9A4vjZxQF9Zc4yAax4CEPKQFSrNrlQJhZDoQPzeP9a4pbcn2NfBBuyQjkG1JthJpD29JFLiUkVYSGm3hIdGPaeMaoMxmjY5mpxkRuo4BlISGAeJyAqswBmiQz41WmFYxWn+WkGNAwxqmjbI1A0BrMB0CU3q78Q7AGKcBQOnIB6pDQL5xJWj/YVDKq0oXBCQOcB4B1A91MSsfCntopAXATihjUN4BCgfAbGEAZfmw1lbPdViGcwNEDgDeabF04wSYtQ3AmKoprUu0em4liKWeceyEOvYPO0BhhaziyNZPYLW1YansOvBoLYvSbMbrGbecwAildxux2LuamOnXEWYnCD/rEGzr0ZZVj/WgxAAZPWFdjhZL69TzlazvReaJgDm3s8Nxb88LtW80rWtY7qTjEceEpow+u9Oa1eOiqEQJNCVyRaqeKo2/rMixotKK3583e86YdCInpG3A2xxRxBMd0sriaIeIaaEnkhlVVywbjVa+niweFWAkMS751qdkNi/VsRfdzUuFjXAZyYmdWfkIFxYKx3SwuRVC1UYulj196IQh0VM2Y1aHDV1fBbDVytIfzA+BzfbLSs/7MUVdXZbMOmys8W1ZdXpbVv3vllUqbS4ThTZZix+opH7z+DHAY0DYJ2wctq+hZVrdYMNqcCMid5SNjfQGiFAaMw3qt5dIA/D2EmkFhN/tJVJCNpU8nXl8XMawTFPUh2Wkd3T16R3mg7ENuhPDiT7wPWBCstOLAht4RlPdqlgTT2zqcOnRs4Pcfzt9J8/u4/DVfH/tRuLUYVxbpGf6fLfwIkawHdbgnhikTTnkjibPEtPsA89PdPu3xI/Js92FHyRiJ08LxcHzaQvBVfsN+V/9Mchtefvj5y9PPp4fHy8/XNl/j79UsY8uv3LR998B);lineShape=1;shadow=0;fontStyle=0;fillColor=#f5f5f5;fontColor=#333333;strokeColor=#666666;" vertex="1" parent="1">
                    <mxGeometry x="224.3037732263399" y="162.33231714394515" width="30.92521965494825" height="33.02509473094824" as="geometry"/>
                </mxCell>
                <mxCell id="16" value="" style="shape=stencil(lVjLUhtBDPwaX1Uz0rx0JuQ/qMIEVwimgLz+Ptq4xrG0djvcFjO9M5Jard7ZyM3b493LdsPp7f11/3X7c3f//riRTxvm3fPj9nX3bk8bud3IzcP+dfvldf/9+f7w98vdsnJ5+rb/sbzh1wGXMyVeUJx+H35hyv3vD58P6592z6frEw2/PguVAgBCKfkNKvUEAJVacQCplMAObEfKDlA6NQGATmk4QEvE4zJACpXuAD3PPc8CigXtjzSYUr0MqDxPPAGaSPgyoDGJ30ErCQi6C7GvgwoJSGsfVNXH0CjrZcAoxP5IvVJuADAoNV8HpgKoMZR69ZVWyqBwBhg+rdJgpUen4XdgoQGyZEGLZ2su1EAMXYl90DrZeL7Qg5rn3oAhVyXx78+YGLVQDgqQKQOA5TxIADcaQDNKo+77TXiS8TygTKIdAZ0KaJ+SZ84noApVtIOF6OtsaSigo0VJ/ZFqJQYNKoO4RsAAaTVmprBDg1kSid2wAEAdJEcZMwBSJaNmWQVdEcA6WmJaB8iSSTF7LlnhFO3Qp6ScABLeIXS0aS2itwUdj5RJ0HQ4tssRkKBmWOFkREBFhbOJyRGARMbaRVdHUsTWlbJa0FcaKPgGSytSVgPUELRAISt5lSWTBTR009SIE4CC+WMtOsIO5j0A+axFhxd7ayB0JDMOVSIAOg2OM3TZAcWQ5gFOYujILY1VliocQNZAJce08pUWXYkxmkAfBljQJVjEBr3M0nE+BnuFoo5r1LzymWsVPIFS8AGKAY2KJ19mOB+WnPjCWWEAM8xLBZcrULu7WVCvrDzLct75cPSH+P3mxcJQ75CoWuIsMWeVQLNpjxq2nAgwW83IhAhwd+aU4seMmSEBPNIRBcDKgrySRa2eR2aiFVvc6o9kHhYNk5GpexegDape06jcJ3m4ZCnVDwerjeLvpVAJzXOCXWro4EGHTF99XmNqZJPxvQNA7lFjWp6vOA/IK24MaMdq9Kw25tHI5WgCzHajfkhxlFz5Ul9xG98EpGjE8vxuv7A8fOAeHfj5bJJ4QqQZ/YXcBK+QYFuaLrSwHH7xRAuJ6d+mr/m/5T26cnyYEa9HcKi6Xo4SmVNM/JU6mdX9CA0+fN90db09/Lvcetg9PR3uxk7/Hy/D7KfDRZrc/gE=);lineShape=1;shadow=0;fontStyle=0;fillColor=#f5f5f5;fontColor=#333333;strokeColor=#666666;" vertex="1" parent="1">
                    <mxGeometry x="257.4216256404093" y="156.42583942366468" width="10.493668250406472" height="26.517649836405326" as="geometry"/>
                </mxCell>
                <mxCell id="17" value="" style="shape=stencil(lVjZbhsxDPwavxK6qOM5Tf8jQJzGaBoHTnr9fWdhaL2i7Cny5iiaFW8OuYt3788Pb/tdcO8fp+P3/e/D48fzLn7ZhXB4fd6fDh/4tYv3u3j3dDztv52OP18fz3+/PSw3l18/jr+WL/w547wXVxdUcH/PJ9mLnk++ngEvh9ctQKX6AaBJUiaAKi4PgNTEOwJo0sYXUpBKRArQwQ2AmMUXCkhlAIQqLfAX2gjwXOkmZTSrT5IbARTRUWkYScn91L20Gqlb7fp9yKujBpLT7ftZ2nhdqYFU4ii9d5LI/WSDyGdJJCZU0ng/RHHk+0WccXATJeaHu8bvR9iXmAfmbNGGnDL7I6jTCAg0z6ByNipnqSSoo5M26ow3MxEJEocwAkI/ue40L35UOveD6/dhEhtzidxXpLnJMpoDWiSOlUVFyfezEz/64OLG64Awpb2TQNI+J4kmLFyvTdcBRcL4QnJSWWD7bsJVZ0+9XLLVAQU+kziqiKPRqmU9uQ5YS8MKaBKJ0s310tMBNUsmjm4qYVS6hV5frwOqFanB0Ewk7eVhBTTqaQCMH/Ama1LLC84ClItkaiQAntSklm0RhtKV6ZCtpwHITIfSe9gWQIIPEqfJDyz4YHVDRxYdWGigxk1mZUWpTexiEZIRHucsvVhczezausjbYGKea5aP4ESZmeqkBN5kWtcpg2AH7uo0unpjh1vRVCYlGgf4yUw0/FSKs4DIASlbgGPxqpYlwXCZlGMAcrUAWjeg9JQRjWd1iRZQmEjwXLIAqgMSZsq5zIOpToDCs9qKVCl9u0TzBhB5GfgkQCelIRIDTI23RVHWFuG4Mfhq6ezgOgBkZEy50mhooLUbxgd2wAhQAZ8xBC50M9yiJ3HMOHA0ZqUcp2HP06alzSoNxhSISLrG5oaTMT/o1NpBcxOJVo19PL3QXEY2UrVtNFEbJRU3ZkOhhRWM0HBEHykgquXpMFEiTljGn1FjiNTYAB1t2cO8RMfVYkWKlQOmaQYANmBNXoYVArmP8Xd0GozAJlxn2RhswBSYSINf6dmN+8HUI+oBbykGJmqWZjbxPSckfRjv13nr96k3+s3n2f1qx/lEyxA+Z5YjtQfsrfCsZhRONOVhnzB25WW/w6JHe0vdbpDIgiFM/QbjN2tQi0nGF1LkAR2mUbLxDYPrXGgt7jxlvFo2j/YR2RZsUhoARkXgpjo1KBbXAETzQqQMz0+hAQCbFwAwI/0CYJkZ7OpvATAd4DiddGC10Utpk5XYctHbfFv8wAFmU5L56mYp15NInoXGVN+zp+utzy+q/w/Aj8te/Onw8nJeq2//b/foODrv4OP9Pw==);lineShape=1;shadow=0;fontStyle=0;fillColor=#f5f5f5;fontColor=#333333;strokeColor=#666666;" vertex="1" parent="1">
                    <mxGeometry x="266.72730364943527" y="155.7592723510063" width="24.698205269727623" height="47.18454044708949" as="geometry"/>
                </mxCell>
                <mxCell id="18" value="" style="shape=stencil(7VnLblw3DP2a2RKSKFHUOo//CBCnHtS1A8dJ278v1YGur6i5Z2qgmwDZjWd4LJIiDx868btv95++3p1S+Pby/PT73Z/nzy/3J35/Sun8eH/3fH6xTyf+cOJ3X56e7357fvr++Pny99dPXbJ/+uPpR/8Pf11wTDV3UAp/X75IgWr895uPF/mH8+NOXik5+UgcjuVjppJmQKKMAJWqzACmBACmQHQqZYoVADJJmwEFA3Q5QSi0YwBHKuwBTQFAKC+Aik5olJK3QYANOZFW79aCAELJqRSIGQB0mDgAUSjKMaBEymUGmN8yALB3q5AWIG/XOl80UwQWFKEyWxBIQeSVSlycvIBLM3mnf6CM5TU5eQa5WXQkyqs8vAAlEScfkHwbabKTR/5pPtGwvIRV/wDu1+TF6xORfKTg5RPwv8mzl8/APyZfvLxgeclOXkFK9v/vMgzSkOSRTkO+kIL8kjqYeZeQAdBWXRza2RsBChVH7gWmgJoH5xRjHgXlOqBQnVXK5jUQdC34JMiNMriFlqnNAMtTAW5tSsHRlgz2vg5oVOa8qXkUxes1M2yJNRCaYMExnWQOJfMDqoFmtc6x1AolcIJa8s/kZWc2wL4aR8XbgilgvqhMWf0RjBKo+CLYtv7niMHSDNAKKcNKlCuCVWE/VYyC5miSBm3oZXb2q9FgA14ygMyxYUoGZPRCw9YLoKwu1lvMRlvOVVSYZfD6ltU6uo3rF6cjhzdAGeF1BHClk29wn7nVqYR7vH6CegCj6qM+IXjrN44Avn0RSANSfT0xgKITqmcmA6AcNeLKiw3whCXjbtlg9WCxAXrJmry33YMB4ptuuviZ51YsLVXuVrTKSMgdAHYassRSIcahsdoAvVQ933eVcMa5Zpg3NxwBKnsADI2tfuwvDnDrVUB6m0oWfPgEb7RAur/iVjzDXLk4GQXgv4aGAZBKa/CZSgiwhreMLu3/Aaxll7ebOSoozks278JRhr2XMmY+q3GOKnsVRYU9Ec8qWZ1Gbu0qzbFknQAaZ/r4ORNZvdH+JM+tKrD96fkwq9SsrQQn1IUqWx30fNT0uZH4tTO9Dqh+Bu3tNfBSiz74eiuLAKsNeCxu4scsZdi3GiDORlt/jwY/09gNfrItjA6NdtFaqYGb7m3tDLApSAHN2Hzhgs96PtQJ1OqXaDbJob7Vhsu2zIo3xldHxlHhvkdslFwWUBkvHPIcfDJatMMFi9uhjen010Lp9Guh9LMtlMz/6uXhwlYH6bwuYNHu3+LTjRcVL2zL6M52Cax4PHfTdrROBI/nbk/SXQSuIFsKzyakDGfhvKhkRqOFlbVC7J4vGmQh49mgHoDeCpIuNjR4D91Ep5IxB3CrOdE/LlTYmcfqV2JGvQm4NS7bpP7sg/rm5cmGYWxbP+h8hFsjS3318gosDn5QMHnUGBmTRC+Papkx26I/iqJlw2gWobEi+KnC5AXEUBjXuZNHA2oYebuTj0Af+9XpH6D+Fj+LPJpO05i/d/LovtivwG5w+1sfam/L24fXV+Ev54eHy6Py/nf/imxfXV6g+cM/);lineShape=1;shadow=0;fontStyle=0;fillColor=#f5f5f5;fontColor=#333333;strokeColor=#666666;" vertex="1" parent="1">
                    <mxGeometry x="288.1618247031315" y="142.51789657766642" width="29.128686279010026" height="70.88265671180022" as="geometry"/>
                </mxCell>
                <mxCell id="19" value="" style="shape=stencil(lVfbchshDP2afdWAAAHPafofmYlTe+raGcfp5e+rnS2OEbunk7c1Pkd3CTGFh7f90+tuYvd2vZy/734dnq/7KXyZmA+n/e5yuOrXFB6n8PByvuy+Xc7vp+fl9+vTjJy/fpx/zhJ+L7xYqLqZxe7PcuJJloOvC/54ON3jI0Xp8EK+buNDIm/kJ4pAAWfKuSNwIJZtgq9Ueg2Bm0/rBLaEGCjlbYJaxB0+xSZhPUYkJkRCziM89/gsFAA+k9QOXyJl5LD+7TtC9S0r6zmIlHoNNRFHkGVpAbwRMgUQ0lgHDYUcMEk8JbEaGBRejuRLT9BKBT4UITY+hBboVYLKM3muDmqYLc6WgJxWQk19pms7WScUEh40gFKqldgPPoDEKUEGHyJDQo2WkLFJ1ZSGJ4fCqgMgWEJAUap2hilBkA86JNkS/uncInCxhIpLQ9xAQD7IEFY1CRPCEFYBc1VbfswDmtxKyGPiUAMlKkPxZWSSztFkCRETYrEERsWXyQ097VCmh8thblFkUmlBvCcUWK0uWJM8bqA0dFxAPmgDDT0tQIN3t7l1x6hYRR2uIMY9OjZEwlPADz2a8ST7HKHkoeUSJeB0TkOUCsycMDmTiAovOb1GfV+ud6nZ2sdWVIBE6D5YjNcCm9S7YW5wa9t1kyiZDkpwOxlqT9clBg2kI6IvPdFBhe3p8bruBSC/2DUgMpwAugCbkaELK9ob1KLce8zcfFr3wNuRoStgROuYa+vdzWdcd9GOGNfWgi18sfgIOicma4+D+6fis8WjEorS3PvAO7AAKL6IxSP5ubl3hwclp/hq5XtQQvpqMzWNJ7zizaPKUUL2VNtjrt3tm3Oot8e3e3RTfjb4gPL72Vfqf/H68fEkfjkcj8uL+v5/+4TWo+X5HR7/Ag==);lineShape=1;shadow=0;fontStyle=0;fillColor=#f5f5f5;fontColor=#333333;strokeColor=#666666;" vertex="1" parent="1">
                    <mxGeometry x="411.9402141137441" y="144.43499755090681" width="23.67304773211731" height="49.931864014399366" as="geometry"/>
                </mxCell>
                <mxCell id="20" value="" style="shape=stencil(lVjZctswDPwav2JIgOdzmv5HZuLUnrp2xnF6/H2hesiIkLxu3hQHK1wLcKmNPLztnl63G3Zvl/Pp+/bX/vmy28iXDfP+uNue9xd92sjjRh5eTuftt/Pp/fh8/fv1abKcnn6cfk5v+H3FSSHnJhS7P9dfmGL898PXq/1hf5zZcyVfB/tEoQD7QDzae0ceOPCV2I+ASLECQCAfxgyEQgAARy4NAFEACClTkcE+BIr5tn2iMr4/JnIC35/HkiaqKGOtYBkAObcu3iqRaXJJGFBJeABUpopooSwYc6iJEshZAuUxh5ohL4KQGA+x+VwFRKGUbQ4ehJSUqnGsUiZBfQuNZx3gKYKyFuXZWFZ9BfJQlaqjB6UGAw9V7LjFzq51AFMeAaE2+q7nUCmPZQ2Mk9ZOm3HD5MvFllUcHOisVR9XBis1gIfoKJsdk8gzIJ/WZAxJl1IGZVWAOAtAnVaAH5eMDm0BSU8esgUIaJwCqgEIVRCSVqkUC0iorEzOWwDsg7JVLADlEIMdoMkDOH5ibJt9BshgzeiqZrZl9aAPCkjBAmCVkt1LSg0H1r0CZHkioir1A3MGqGhV9ohn88CoSlp1sQDYaW5rawYQ1DhPLi5C8pCtfjFxFYSk8xAWMx1AH6YRXQAcCEkB5kBRakS8ZvJiCTjUadfE2pzeqA+e0nKAUKeZygJwZ0TdYqYDWjNxsfl0zaCQPgtQdSRjlVSVookrvU0d0AXR+inqyZszLuJzuo/L7BRFna6V4ki+6UxCEs45K/piaeLgVkzGRcowJpUCaVxMWTcPGOri7BZQRYTO3VQtXdUno21crP6pAWqHoFvF6NDS1u26cBWr7meVXtfGnmqwLpBi8qq1TUwCe52tFFB5H0DjxB6KOiEM7HUXmwtKhvOzZF6ESsNRHXmkFywBAy3Ne582hhemfrPo46yqF9BOG2B1SYC3Yp/tHi5tNNYpIe1y1DOGjND8DK1dk7y37A2DHGywdH592KMG6+0t2XjQCOg2NJvijn2yiv5OPNneV+/kW6xSvVNPHVgx9gUQSO3tkmgHxC17q82bw/9+P9I6y/gZ6rvPfhW6b68PH5+gXvaHw/UL1vz/9pOV/nT93CWPfwE=);lineShape=1;shadow=0;fontStyle=0;fillColor=#f5f5f5;fontColor=#333333;strokeColor=#666666;" vertex="1" parent="1">
                    <mxGeometry x="447.71305222047454" y="159.42896217306634" width="15.04333595467574" height="37.323116628862294" as="geometry"/>
                </mxCell>
                <mxCell id="21" value="" style="shape=stencil(7VnLchw3DPyavaJIgiTIs+P8h6ssR1tRJJesJPbfB8wWx0Ngptc55eKbtIMmARCPJnjhd18eP3x+uKTw5e315feHv68f3x4v/Mslpevz48Pr9U3/uvD7C7/79PL68Nvry5/PH2//f/4wJMdff7z8NVb4esOlRLEMVArfbr9wJen//vLrDfB0fd4BYqUWVkDHgETcF0DOlMM5QJdbNcqNAp/LV+qyyJdEGShUKPIqL1TiuXymuq5fE1UgXyjXVV4oA3n9mhZ5iVQKcGiksCokmRg4NGbqq8VSIEBNDqsJwlQTAHSqbQUEagDAmcQ4tc4ljgGd0hpFNRJncGqJijlmdQM6Zqa0Gp2FWgWASD2vgEAVuFVtCKsNzFSQlwqlNRU02AWEBgfq6w4pEAO36npl3UGDBdmg9SKsRncqKPubrS9lptOxfJm5u1lADa3PNpDiDJQzeY6LvAYq0kejIht5Qbmm67ORL6B4qXwRI89Yn16MfELra6218hGEnPo/WHsDSDOVN5mv8sg/dWbtD8t3tz7SR7w/I/JPs6UuzAM/kzfVGieYylfr/wLW1/A18c84H7MtEbho6WdZ27dGCDKAow2gtIXsWdEyNUh/iQCgdbS5witAJf1sYqIG2GELzxzfnJRgVpZud2hMARRe7V5lDYseZzs5bvrJqtSVWIHAEKFkdugwc1qcrGYDNCpApZbtOahKFQF0vdVLneEO6pO2xlLrs3wfA3i27A1QpxuOAXly0Q2QZpc+BhRbr9XREZx0d/ROtEQho8tkQjsAIszqdW4WgM6hiyOEdZ7MGcCrBA9ui5y9SojDK10LzmiQot0zyAoLmQJMI9SDQ52hu5weKYUBhlrIRtXPAD6WEDlSt4oDIHahgBAdAIeGbQ93AHW2px2gIhuKZcEisD8ooDijUfUeKep2gEWg2BvnCA0MOAg+FBqVok9RnNONHQCdtOMx91OUfU6jIrC1j71K6OC6vSvINgs4A7RuAR2RpRCcTgK5w39HqFLZt3YUHG3e9nc9CM4vqi2WHXNW7XLJcAGGTUu7Jq9GjzwHRquJzXTqPnnpMdtw8brz9DEDUmIsTicEiLYeKz0oAFBcWqtZ6O6T+/y8o31oyJDd5VCJJUo6Fnu7HdwUqKRsOq078J1RTLUcS+k3aqR6X5a1WirBRzbETnEN1zbHFGc3MnMjZjhX+Xnj/nnjtjdu58//8cat8mL1h02qT7r/fUJ1Z2Jm+ke5O5Jb47nPzn5WUsJ6XuNGjy/opo+PE0OAbq9tCVMLraOG1zLP2n0MUObhRqno0LIjwmNYi3YQ2zK1nQQ0lcj2UqUN685017i1CtyBs237Eimj2ZDYC7pk+BIxztURMJg7aQ5e9gDQPNxjkGokIPmTo8ERFndtFdH6NAN9HBusCUZqmA7fokIgt0v2yEqC4+ZyFKbwLaiutW6EIX5cSytgPJSgbu9em7ji8iv2OU4BEfWPZoNuTARxwbbVQgFoB3fPVkBDL2ZuVjAAKNOC7WkDAHI5RYrZ2YDnvJWtW1GbHQ8v0Z0DUsnFqgJQI1GAmTspIKNOlSyz4K2OnwH8YzO6Qf7A67T+8f1t+9P16en2NL7/bt/C9afbOzq//wc=);lineShape=1;shadow=0;fontStyle=0;fillColor=#f5f5f5;fontColor=#333333;strokeColor=#666666;" vertex="1" parent="1">
                    <mxGeometry x="468.6879614578204" y="133.2969595176453" width="21.796076477718543" height="84.08020745169449" as="geometry"/>
                </mxCell>
                <mxCell id="22" value="" style="shape=stencil(7VjLbhsxDPwaXwlJlCjxnLb/ESBOYzSNgyR9/X25NeSsqPUEufWQ29q7I/ExQ1La8dXz3fXjfpfC88vT8dv+1+Hm5W7Hn3YpHR7u9k+HF3va8ecdX90en/Zfn44/Hm5Ovx+vly+Xp+/Hn8sKv0+4lKiEBZXCn9M/JZGmf/98OQHuDw9rQCNxgEJFAUApTICGdlCKbQQIhYoB7AHM0IdWPKA0CODqAS0AQKUaPUDRDvbaRalSRFGSKayVEjKpUCgTIAJA7gasTUJ5YErTDjBxM/ksDMik2F+vABUAOFCREcCdv9sAoey4FCkCQM6UR2pknAfTlzMpR2qAGkWpjnrgcyo3AVKojmE1OgagB1GSMXGxURUI0JEaMULFiQkyj2ElAXkzn/MYpEQZuGxJSs4gamB9C3kas8Zd4Zd45EpMpQzWj1aSdLTHeJIBIFAdA7TID5RVIXEOSDdx83sj5UiibCEGNLWE1nEDSVA5Rpk2pqxmkjeq8Bijlrs0LiUtjOrXCGlqjSaMO6j1KpAFMZ2MPmijAvJc1atfLQ3AJGVqI5FaIwV51uxrZMPaNBfzBEBa06nkGaCAxKlxXycAMqn5KC0mAbmpenm2M7suAZpzWmH7jCH4/tmwIJYtxAMEZU6J1QMUFDELk4w1QK3sIEDtBqwACbQSS7WwBzAI06KXNu2AMpd9K9EA65IJQvMUJURX7opc5wFFiSknD2CsUWkeEFBYsx98Froip0tfby0I5INsAAqmRswTAJQ+I1+UySREDe0zxbowYT04ajSFY4kBtHoAY4nOXEJnEwOUKdMNF6b3AZrNxK6jVNhGrQXpuMOqVG13ueD5bWxBww/PbTFBbixzulOQLYGmmUQ8atRmASTq4slnw0YFYQ29o62nGUDWqdhbDBSNGv4IavMhsscc1lEM0QDAoDTVSYGVm2s/I7wOuGj9Ev33mESSfbOKfWLfHnwmh0sn+vb34g/Ey4kBFDADuJkh4kHJLCpjRJcZHbksvt1ygbcA5dw2zqxLfYlLSYjubNjgUJ/ZV207LaKKx9NRz2Ze1NA/rm864OP65v+/vollAmQKIKwGcJ2qMBxKDOAvJhj2wgWgHpDwDjJdQcHmKRtFACnOAFU9ANWlWLvkVwB0zLXSm5sHZCDRqP16ZA1Aeghd8msAaCjGJV9mEjyELuRLHgBb9Luvxt8G2MPrTfzt4f7+dJG/fu9v7u2v060/f/4L);lineShape=1;shadow=0;fontStyle=0;fillColor=#f5f5f5;fontColor=#333333;strokeColor=#666666;" vertex="1" parent="1">
                    <mxGeometry x="492.08185540176305" y="141.15295574048798" width="15.195137464615073" height="55.822266443050694" as="geometry"/>
                </mxCell>
                <mxCell id="23" value="&lt;font style=&quot;font-size: 14px;&quot;&gt;EXECUTION&amp;nbsp; CONTEXT&lt;/font&gt;" style="text;align=center;html=1;verticalAlign=middle;whiteSpace=wrap;rounded=0;shadow=0;fontStyle=0;fillColor=#f5f5f5;fontColor=#333333;strokeColor=#666666;" vertex="1" parent="1">
                    <mxGeometry x="291.43" y="20" width="160" height="70" as="geometry"/>
                </mxCell>
                <mxCell id="27" value="" style="shape=stencil(lVfLctswDPwaXTEkAL7OafIfmYkTa+raGcdJ278vVFWxSMrbyU2msCKx2AXoQe7e9o+vu4Hd2+V8+r77OT5d9oN8G5jH4353Hi/2NMj9IHfPp/Pu5Xx6Pz7Nv18fp8jp6cfpY/rCrxkniZJMKHa/5xVP6v4uPMzxh/G4itdCJdbxnoreBoRE0VcAVuJ8GxCVQr2DnVESABTKXAE0Lp/YBKRI2VUAO2QCO2QmX5MUMynIIScKqQKkQgmw5J0jV5+pZJhEKSR11rbiPADEpU4rgCKAkPct4J9YtrPOxNICCgJwW7kVD9ulS6T9FgwATLHLOoEdrLI9TVB+kVJTiLx45BaAO0AAhYiWdGkBDsgvOZIGkGDSSSlyC0DauMp5BeAASh2IXQcAjiiONLQAQYbQRWsrQATSMBJ9agEF0GpCyNLWATqoZylTRjnYATrLoWZpSYeuC0RAay4b8s6olemGgUqB0vC5A6B2rG13nXhDO1iP6JJWADADcXckj5pAJN85LmJPfw0QpKXVeMvAQGqW72ZQAEkrk9bytimHWqUE8rXjbI6irsHGel0Hm9QBATzlOmm7Cygai7K8/hwQDLtGN0U9JWBQt6jgGi5gXvlWRo4KmAzStm0HrRkpuiYczR3vlt5zjfdAcV7bOWVkIe6t86Q2HhVXFtOu4oGguRO0Wzy0zaZvb6oONl+xxtWeB6lZYn8TdkAMX705/z/eHq7X9OfxcJhv+ev37bXelua/BHL/Bw==);lineShape=1;fontSize=14;shadow=0;fontStyle=0;fillColor=#f5f5f5;fontColor=#333333;strokeColor=#666666;" vertex="1" parent="1">
                    <mxGeometry x="213.43677446291235" y="243.43409272332622" width="2.985679121777366" height="36.390263876623635" as="geometry"/>
                </mxCell>
                <mxCell id="28" value="" style="shape=stencil(lVjLctswDPwaXTF8Azyn6X9kJk7tqRtnHPf194WqoSOC1mZ8syUsCSxAYMUpPrzvn952U3Dvl/Pp++734fmyn+KXKYTD6353Plz01xQfp/jwcjrvvp1PP1+fl/9vT7Pl/OvH6de8wp8FJ44Cz6jg/i5PIqX8/8HXxf54eF3Zl0A+dva+UCnbgFTJuw4QFFC3AVGIa+9RohoAwLfXDZA0qLQN0BBd6QEMARqi63fIgdgDgKMoPYApMaCVcs9q8RSBR6lxfrVPFBxwKFDuSS2ZAogg+AFQiIFHmoWSeoDgEDxxTyo7WHrZU+iD5ghjKI5yX3pccBYqFd8B9Hh44BILSe+SRKqyDZAhcVIwoNpa1ScBxFCrLb2qxYUB0gdduZ3xjeJ25JxFMAhCt6h9bVShBGpDAaWvDX3iQCLm19UCMgKoA84CBNHE1qUVD7cRhSTaLSqoVwX4IeqCALnFuAJ4xGtuXWKVCEhTHnhlEtC95x2SBQRQTQowfUNpKMil0tZbAVAb0Ne1P0K6Z0U7aDVnC4BBK4nBuvRJufpqAQnFUNvMXAEqorUOQTNlMKdngNlBKICxqwDL0rUbbgHCcEYTOkAylEZt2mArcSIWgLqrAsa2UVEMpc20tUu4vM2Umxs0ovVegA4Q2wQCRcCShNZ7VyNFAEvMVvMJLr4y5EHHoge0ZrEDgq8TYEtVGs3HVwl1G+CaYFuJh4pkqCPpaWWVvkgxuaaPVnqGQRPw3qoN1R9oUqdG+kphIZKGMV2utbVhbwKYxT6oi9jK7Cpy8ZAeJmjOWLTqBn0KsoNHQSOIPUMptRl8G6B92Hz9YCUTs81B1NOE6q7YiatpdGCHPIwGpQEJk/l09iypjAaFzUMaHOzzqnGH9R04y2rPdn0kk/SkB7ln/UGvOigw5i9cu34G/qh9sfGisab2phX5tuFte98OyYc9+rAa7QPM1+yPN/YF+ePslI3ti32Tz3tuDD631x8f1xMvh+Nxud1Yv7fXGfpouQqJj/8A);lineShape=1;fontSize=14;shadow=0;fontStyle=0;fillColor=#f5f5f5;fontColor=#333333;strokeColor=#666666;" vertex="1" parent="1">
                    <mxGeometry x="210.10114706870604" y="238.37423878507445" width="26.551782267936005" height="31.72315454231125" as="geometry"/>
                </mxCell>
                <mxCell id="29" value="" style="shape=stencil(lZbdUttADIWfxrdnpNX+XlN4D2YIjYc0YUKg5e3R1mOIlkSd3vnv88pHR8c7yc3L9v55MwV6OR0PT5vf88NpO8mPKYR5v90c55MeTXI7yc3j4bj5eTy87h+W8+f7/mQ/+nV462/4s3CNUEKnAr0vV2JCan+v3C3Abt6fAxmlGCAJWnWAhsoGyIKaXSCJAUoEeyUltGyAqis4QG2IFmiMFh1AVbIltYLE14FCyFYlJgLRdSITJNolGtiRKRGq7ZzqQE4jooBtI2oFO4BUkAVK84EMsrrmBhIHKGMjUkV1VIphXCGqW5zO6W1pFggITklaQK4G0CKzs0KuaMkCGSE53lARrZlU6OB8dG+TXUFbGfyBoGFG6V8zykPjCLFcB87c/OkNWoPh8hI6MBbQofJa3UdysGtbX3FZJh36YUg1GJySeqzYkr6i53KrBeXbjFYnBjQa6wBofHozmhCHoVZZHTN1QP4HkDima09Dx0whrm7+BBKyE0yc1rQ+i43ofHRBtW4tDHHaEMYwzrym7cXn1ar2AxKvKXLteWuLSODg1ZNsYgRfUc0TWz831xQcR4GYkZweBxmBBHEmRz0x/Bm0AY6garpBofHfpgdfO47HebdbNizn98cdil5adjdy+wE=);lineShape=1;fontSize=14;shadow=0;fontStyle=0;fillColor=#f5f5f5;fontColor=#333333;strokeColor=#666666;" vertex="1" parent="1">
                    <mxGeometry x="247.8631549603631" y="240.85546056846158" width="2.51462274023811" height="2.522336761604606" as="geometry"/>
                </mxCell>
                <mxCell id="30" value="" style="shape=stencil(lZbbTsMwDIafprdWYufgXHN4DyQ2VjE2NMbp7XGp0tVBddld1uZrbP+/vXR087Z7eN106N7Op+Pz5rN/PO86uu0Q+8Nuc+rPsurorqOb7fG0eTod3w+P4+/Xh2HnsHo5fgxf+Bq5UqCUgUL3PT7JCZB/n9yPwL4/zAEG7xTABJwNACGRAoqDlJYBDuCDBiKUsAxkgogaKOCNkJKHonPwzoFzy0R0EFgfwUBxGQgCJA0EIKOuhMBaCGaItAygvM4a8EDFADIULYQULnsjJA9O55ASkAXkVuoo9rKqlKqwExCBLB0YnJY6St0Mb6RSU5wDRkjsIJdrQhI3Nw2xknRJ1f7/LKu4OWvzDcKhCfh4jTXEm6zLumI+zoD6hMHexglZgGYK2A2UIrAWbrVHZW40PWqPgUBtB60MGorgmhNklBlJYIGkkxiGpTH7pEezFmJlHF8N+FRrMrmvQLSUq7pO+719QDtbowc2rDSJWvcHXztw4fuNVWVMZevfAVCPGERAwxU+1u6djEd1cC5JEDQgRxo+DX/GKkIwAoqprZCUzIgn+1Yxu2841UacxWPsn/XhJWGnHCGLy4Vj2+/3431l/r69oMij8XJDdz8=);lineShape=1;fontSize=14;shadow=0;fontStyle=0;fillColor=#f5f5f5;fontColor=#333333;strokeColor=#666666;" vertex="1" parent="1">
                    <mxGeometry x="251.60518357308592" y="258.6149241962735" width="2.1842514278500857" height="3.323248788084811" as="geometry"/>
                </mxCell>
                <mxCell id="31" value="" style="shape=stencil(lVjbUhsxDP2avGpsyZblZ0r/gxlCk2lKmBB6+ftqm26yVshheAvLka3LkXR2V3L3unl4Wa84vR4P++/rX9vH42YlX1bM2+fN+rA9+q+V3K/k7ml/WH877N+eH09/vzxMyOnXj/3P6YTfJzumVicjTn/+PxCq8u/J1xN+t31e4DvlNOKNaruNz4WKDgbiT+ptA05ko0eFSQowcAdGlypT6rcNRKnLYKBCGdxQKqkNBq3MaXvXoBbKPBhYJc63DZQpjzd0ITZgYGRj0L1RAzc0mZO4MOig0K0Rt+hSB0FbIh0LZzqT5X0DIR1jaJUSiMHPkzwWLsOgzaiNNxSjjNidqAe2VsjWztGAvfYKDEqkd67YJaU03mCkCN8iM7x9UASNSsRnkFPH57EIXgPQbe5/bwFfACsmvAV8Qnj3Z0yo85BxvBrwguM1C3jE6m4k8Xzov0VCOB7Vt5Ok6A/KfydtAV8QQTv1HPAG8pPTOb5LwdCsmy6QgFeUoD73+AXfcQChAEyMGsCoc8AXRCCjIhEPRvU0Z2vEY0LX6A9/0AA95gfjr+oFN77GEZfxwPLzY8M0sF0dL7EBCm7IJgEPJ67F/DhhcX31Co/5nGPDw/x8Fm9zOS8LoGO+Bf99w1QUcJ0bfLHDKmKQkI0M9S0Jd4AzbAzZ93ABqtGucqRY07k0CE3pWqIiaeB6aGSpH4HapvW5y896qMIYXCOmsOkTXgXaZs13vsKHN2id6qM0iDoXpoAbNUdueNSIG0WiMG0KY5jU/cgNLbCdWeM4qgLnY/YFO5banWzIwOfhGLTTFSlZjRtQ8ETy/47nszMDlC3N+2iBRys8xYHq/YmoerWQp37G53PEM2D2eV4t3hnRRnaBxRGv0J/wXuB4JFlSFBSOZ3B+jgqKzyy/gQ9NM+GBP3xVL4GKiGe2LPDwjfeT7+wf4/3H5QPB03a3O31fWP4/flDwR6ePEXL/Fw==);lineShape=1;fontSize=14;shadow=0;fontStyle=0;fillColor=#f5f5f5;fontColor=#333333;strokeColor=#666666;" vertex="1" parent="1">
                    <mxGeometry x="272.43574227036856" y="235.55183508451512" width="34.75346306984784" height="42.67320118665975" as="geometry"/>
                </mxCell>
                <mxCell id="32" value="" style="shape=stencil(7VnJbhRBDP2auVq1uqrOLP8RiUBGhASFsP09rxlqGLu734gbEtxm8asu289rH/KLT3c3H28PKXx6fnp8f/v1+Ob57pBfHlI6PtzdPh2f8emQXx3yi7ePT7fvnh4/P7w5ff94s0gunz48fllO+HbCpSElLKgUvp9+iUF6+/nL6xPg/vhwCSiSmgF0yWNfPnaJwclHcn6M0pK/UI37gCa1WHmVlPflVUo28ilK1n35Kk2tfJ8n7Jwf7P2zihKFVYY9v+CJdV++y7D2r5AP3KDVALRKJwrEKjEaQKui5EZw8bAu6CAJuVLKkwITMIIkQiI4OVkSjSyFAHKUkD2gFwIoUq2VRppm2AY06RbQmzRypQKaWWJ0RBohXimiVocWpXQCaJKt4zRQ6pW+4t4QJVaqQeKw5O6iLHiCFOtp8JdxCYDgwnnIYEr3+fcZkKVxKzWrw+B+a6LdyQcSPsv51gtdEtEY8t2aqNF8B4WjdZpSZkPeMVtprIECLoEhXTB7Dn9+vcqh4OQruQ/k1Z//q0Jsy8e1fZi/IK8uaqSS5AX5Ye/TaKKoyccMHM7kkTtdASy0wlbc1wJSksCeAI9ZxiFdDmJSzf4JJc2g2AagJ3BFKtOi2fAEG2SaaFS2c945A8Ys1NtlM4taHRrPEx1ha6/UdB6xCRjqEwvyNetERpPiCi2vCKNL6B7ArARAK/5KgekwfAkBoDIdYHVXpJIkpsPwNQd+iCRfjOETfCsSmNJj+vUCMDggO8fxFgxm7c6sKpnkDAB8DtAZg3vUqHEFYFfSmaQvAImzNVevtDJP12nEC7OywjPObeaFp1maGXWlQ6K1HzrE6gGRK6229iwtFQO0lePC5O8eoKsHsDQDatS8egLJ3mBrXLWFmYeormL6SjyM6M3KPB0DujZnVyRXxu+xanoKnWIAcGMe6Fp5JnMTAALiSp75M0DXyeZzowe7Ekfgb88+PkriAq4ZXuokyQKgjiOTnkNku1AXn43RTbAZA71Ds47DuFqIpzGdFqvDMmoxQPQDbio0Gy8NqFU6Nuq4f3ECKE7+/wTwF08AeTUD83YbgG4VwNBMp+ziLQSKsp1QzT7X5THjek9ntzaDF1mCX5zmUleiTwCri6u0ZVahbUCV4DY2ZTbg24DgO8+BOkiIl6tPXajurDTn4CPnopRub8KqN9PSQDBAmNvNMwBmIh1MrD7bdU7vGFe9aqddWPPdM8ZFNpQUf6F63vluq+zJXXQuKDflkV7cUqvRuW3V7Cz5mkRb8JNn7DR/pRUpIh14qi/Jdc5k242On9gSJVBE6Ft1+VIRyrnsdYXR0c8VgbInreaQSOUz/rb04asIyLvu4MrmOPmRudC8BXn3gqPO8rAn7/RVGr85++qqtNvPq2rTaBeL+7ixjpcOyLsV8KBz5rKLcgvdMDcxewA3vgPAVkHIum4rEvlWBICgKwB5wp+/VbsOwIffL/HeHu/vT+8AL//3L/3w0+mFYX71Aw==);lineShape=1;fontSize=14;shadow=0;fontStyle=0;fillColor=#f5f5f5;fontColor=#333333;strokeColor=#666666;" vertex="1" parent="1">
                    <mxGeometry x="216.31119802515832" y="319.52715715605325" width="28.688387070943463" height="20.591448641840884" as="geometry"/>
                </mxCell>
                <mxCell id="33" value="" style="shape=stencil(lVZdb9swDPw1fj1IoiVRz/34HwWaLsbSpEjTbvv3k2c4Mznkir0pzp1EkXcUB7l73z+97YYU3i/n0/fdj+n5sh/kfkhpOu535+nSV4M8DHL3cjrvvp1PH8fn5ffb04ycV6+nz3mHnwsvQstMSuHX8kELSvvz5XHBH6bjBp8ycjCErMjxNiELJBtCasjjbUKLqJYQ0JTg+wHV4WMl+IwoDh+E4As0OXwmGWqKpAbfL8Tibz5BgpHjm40/0wLM+NHgK0rm8TSDb1QR/b5i948RIwuooFkJxYTCKpCRoiUIUqKSGIsnREaIvsY9JGEiDWuNroSuUqI67aIvLquRHNDx0aq6InC8U9GIxorQRW/3T2hMFRHJ4iOEqTRBbc0CpBD8uDaFjSsDFVHyrhemoQoVHz9TRENwbQvKukqDBpd/JfmP4Xq/lVBWn946oNgENSqIbsvqbBmgzMd1de3GA+kLwj+mYYQSUC1h5EUWQbOEoqtRb2QVam3Zg6xMFihWRT1tLEnqVTeXhci6oLpGFPiV89rYNgewgMQ/lnP7JhdOGMVfWIjvo28rPaGBVKC/jQ6f6WPQs+EeG0Gh+zvXzOMCsUHwj7HyfIa1a17xSqeJ/52fvsb3xd9h7WU6HJZZb/u/H+76p2UwlIff);lineShape=1;fontSize=14;shadow=0;fontStyle=0;fillColor=#f5f5f5;fontColor=#333333;strokeColor=#666666;" vertex="1" parent="1">
                    <mxGeometry x="254.3408031567651" y="308.19851456712854" width="10.348013668711019" height="8.46068626530598" as="geometry"/>
                </mxCell>
                <mxCell id="34" value="" style="shape=stencil(lVfLbttADPwaXYnd5b54TtP/CBCnFurageO2yd+XqiDbpKMxcpPlocQdzpDUwA9v26fXzZDC2+l4+Ln5Oz6ftgN/G1Ia99vNcTzp1cCPAz+8HI6bH8fD7/3z/Pv1aUJOV78Of6YnvM9xkXKZglL4mG8IU6v/73yf8btxf40XKsEE9EBd1gO4UBUTUAvFtB6QK/VmAgqTgJSKUO0mIJ9P9WlAiyT2DalTASl1DbCHjpUqCuhU7RsaxbaOl0SRDT5QCOD5ldiWrZJ0gC+U2OXTAEOdqWdbZUoR4BMxOzyj/IOvcacA+Gxa4uDyz+D5Tfn3/BSMd/wXyuC8ig9W1JkSkKjii+WTKSKFCuVkFYr5D/68cXnhWr1c/pESqhd7/uMiqDW9heTwFeErRXHnZcBnb4s9Lnwyen4jtnrLsEMoPtl6aRdD/Gs7sPi6NIA1fqr3Y0H5Z2LLpwoW1Svd+pdR/pHY4+/oU8TlX4HeVP+SHD8d+b0vdrrw38CQmfxo9Z/v5cPejwX5XSjYEZNwP/kiPobgBZ1gQlL83I76BKSgvjTMc4BQAyOjnTv4maIEe7SOdXFjuMCmomPdpVR0KoGqZW0KbpUQaIPJtZYlNV5HdfaLgQicw9qGqsejRaJSiB7fQZ/L1C2lV0L5fNtaxvrVCwTIIvk9RfEVGD9SuzlABCoK3vfS4WAKfq+RBo2vbFgfiy5CIP8bmyk+gEYd/N6kxkugwIGaw+ugAfx/ef2+i9eLy67/Mu5286fC9f/+20Bvzd8V/PgP);lineShape=1;fontSize=14;shadow=0;fontStyle=0;fillColor=#f5f5f5;fontColor=#333333;strokeColor=#666666;" vertex="1" parent="1">
                    <mxGeometry x="263.3629021380011" y="306.9857258140278" width="13.519092809304084" height="17.65325940625985" as="geometry"/>
                </mxCell>
                <mxCell id="35" value="" style="shape=stencil(nVfZctswDPwav2JIgudzmv5HZuLUnrp2xnGvvy9UhbEAyutp32SZK1yLBbjhh7fd0+t2E9zb5Xz6uv25f77sNvxpE8L+uNue9xd52vDjhh9eTuftl/Pp+/F5/v36NJ2cnr6dfkxf+DXjQiIOEyq43/MbT9H/ffF5Pn/YH5fnC3FT5wu1ePs8R0qsvx/JhduA6Pv3PgCVPPAoNgraQmDK6TYgZWpZAdhRLLcBOVPULrEEDQAlU3EKEFN3chVQE5WqAMlTBTE0T8EAKgy6JfI66JyoOgCQGEyhmRjE0Bq5pADVUQAWvHPkdJpqJg+4ISaCJmuTqDMAVCpFA8RLULlWBguNIsprpDIACq6caQgBoA6qwjVdiEXi1hGRYh1MgLxWT5yGIACgVNukU5pAk5ZCsQ2FAGwSgDeVk1IjC9WSSQCIfqVRNS4V2HM1dK4tAKkCQB5cKl1J1gGNUhkAqCF4xUICFkQGWrCAAmKQJDq2ab3To+9qvQAkDDC60SpsiGuZFlyCypQoD2yFshG6li4A72S5VTg/0LshgLg0yEYDLgn5eAAg/RZ6j0En3HFjWj1waWrRoXBI+v4HULWQTQMCD17T0zKDGGVJ1hPd0zLlIgIE65LMUbQLZCGzbiCZ1A1YyNwHzgcg9GG/vs9EO9pl28jApciUdItyJQYWmLuoLDYmJJWyVQZdhxDhEudl7mrlk60PxeA9OR2D7JVIKoOdoiJsIORhNZGxDQJ2dgf1XRDWvSevSXQnnb3Tr8eRM8n6fqcHKLM5jgTeO9syDi70nq3U4e3F5z7nF+cRE1rn7vV8QETwVKz/aMObbhM2nQXoqDC96niFqkBG//kGdve8PFyvey/7w2G+LS7/t9dDeTVfLfnxDw==);lineShape=1;fontSize=14;shadow=0;fontStyle=0;fillColor=#f5f5f5;fontColor=#333333;strokeColor=#666666;" vertex="1" parent="1">
                    <mxGeometry x="288.42448908472875" y="300.42553435531613" width="4.545588375274519" height="38.7574331183024" as="geometry"/>
                </mxCell>
                <mxCell id="36" value="" style="shape=stencil(lVjLbhsxDPwaXwmJ1IvnNP2PAHFqo2kcOO7r78utIWdF2YPk5mxILTkkh6PdyN3b7uF1u+Hwdjoevm9/7x9Pu4182TDvX3bb4/5kvzZyv5G7p8Nx++14+PnyeP779WGxXH79OPxaTvhz9ouRKi9eHP6en3Cg2P4/+Xp2eN6/rByUUh7sRagA+xi8Q2LSAhyEYh0cshBX4FCphcGhpP7Oqw4s1MrgUDNVve0gTDy+oWVK4bZDiqRj0sokIOls/06jQ6YGYC2Rso4OhRJ4Q1GqI6wqVIFDbZTHHFqlHG87tEKhjbBaZQCsGiiPSZdMBRROI0kcW4MpCAhJSWTs1kYJhNSsc8Y3sMEKmq8Wj1K0J6gOdt4YklIGrZQNEpczCYPWS77ONp/gfLHWj85ewflGGHmchYVCQFso6dio0WoGAGrEkz2DBC5wr+wjiCdTmOJvwP4yJSt7VABjtxF/Y8AK4mdPwGYfYDzB94+AETCuG8Np/X030InFmTOYyEJ17P7as79R29S8OUjVkIg++IA2QaSSnH1KwN6w9/aKdpl0En/HvgDszT5NtUW9YwGpeAcFfGUZe4cI6cfOy+wdcMlc/yzjBTCqFGWyB+fnzsfreACmaTo/Qv6UHu0aUTi+riXMHk0Ae3y0L4Qb4eSp48AEJCrqzAW0wyfNjfudrgmdHK8f3/w8BqjMTKQ4VWP9Dc6v4ufXBARa72lavpkycDAV5paj9R/qBq2+vCYgGMrd4PeLaZQIklbtlHBRQYUiUkGpi9ULSg2PcJloTmFfmBx2XWriEg2lFdrtgRUO11vJeGLMWk1vAmAl+T1pOAQ0mIl4FDaGQ0bkO1HRIu6gsuGRiky+IjWa/DTYxaYgrvbiNRmZgXU2dZ5dzdA9KPo+iqbVwPncdcnKHmljnpSiQnzsmueot8HrQJqoveFLVierlX1EUt3fXCOWH7VHuz4fzECb8MdiS6mxt0eXGdtcZUoY8amtUq+9tdfkg4LLHJDY/fTnhg842I/3rxtP++fn88eR9f/91xB7dP6SIvf/AA==);lineShape=1;fontSize=14;shadow=0;fontStyle=0;fillColor=#f5f5f5;fontColor=#333333;strokeColor=#666666;" vertex="1" parent="1">
                    <mxGeometry x="299.17879011861805" y="302.8994010447959" width="12.15897702092434" height="30.413745322792806" as="geometry"/>
                </mxCell>
                <mxCell id="37" value="" style="shape=stencil(lVjZctswDPwav2JAggf4nKb/kZk4jaeunXGSHn9fqC5tEbI2kzdHWVA4dgFQG7l7fX542W4iv76djt+3v3aPb88b+bKJcXd43p52b/ZrI/cbuXs6nrbfTsf3w+P575eHCTn9+nH8OZ3w+2wnxHkyivzn/4NKmv49+XrG73eHGT5E4jYaNGoKDJS0DAYpUm7rBrFQiaNBIeV1A0nURpdyoJbXDVKiOAadlTIIOgtpHQxKoSjrBkVIZDCoiQIIukYKY5Y0UK3rBsqUwmigVEDQWimOMTSLCrjUrNI6GlhlQJZaosqjweXJmkFMPoaEXWqjS9XIh1wKJGOlS+t5u52lRtlRo1IuMK3N0TtTANTQTNUJiCH51Jgz6iHgtKpQcgaQrIbPI5WYFDFJfAQWAPLHylwcHvqTege64hn5kztpZnjkT+kFmuGR1IrnNfeA1igRvP8ZKzP58xvy3/BjPq2+QDWGF3b4gvwvvXte8Q2dXyiN8cau67V6qTi8oPyboNTjwcQx/jgNx9761vAcHR7yTXobvOanYn0ljxeUf/H1ZThhJ3/U4QvqccmPcCbB+OL1EhA/s580H+gxU4sej/JZKHs8mq3Gf/b9LSF+ml68fivK/w09BtwfPodXik6/CU8MG4pjwDZiJK4btMX2YStSAyWYVofFmIRvWEw9G8Qo6Fb9FmijvgAVNztvZJ3lDbkU+ELL2b7SkE/qhWZP0KS088JYiNlL10rnorBXwIUl+WFjqRZQuloXb+De/27vshbjGLU1nABcKnbeyKaa4Q6V2TeYUuEum4Kf4NM7gUQl9o5y4avAXdbuRTpyI2l38jabil+iTEIVZCmw31rsXoTGQvBbXeI+12/iuW/GM3wASb1sofOLHYiY/fIuWKALVhgejf2FOg2PxvJlibvglSooMfspZXg0Fiw/6vEBcI79rdRu1g3Ea/WtHq+of904v4L82K1bFnjAt89+GfgYbz+unyGedvv9+SvG/P/+s4U9On/ykPu/);lineShape=1;fontSize=14;shadow=0;fontStyle=0;fillColor=#f5f5f5;fontColor=#333333;strokeColor=#666666;" vertex="1" parent="1">
                    <mxGeometry x="42.432284817515665" y="231.24234659061187" width="25.40064226044774" height="42.89436779131677" as="geometry"/>
                </mxCell>
                <mxCell id="38" value="" style="shape=stencil(lVnJUhwxDP2auapsS97OhPwHVQxhKoShBrL9feRM3LTl7kfl1vTota3taeHAN6+Pdy/HQ3Cvb5fz1+PP0/3b44E/HUI4PT8eL6c3fTrw7YFvHs6X45fL+fvz/fXvl7sm2Z6+nX+0L/y64ljIhYYK7vf1jZCUvy8+X+WfTs8r+ZCIyyCfyFcg78jFQb5S9vvyPlFIg7xnSgEAPEkeAZWY9wGZkhvkVYMMNIjkZZDnSAl8Xw06GkgiVWBRtff4/ZgpAHk10GjQVEiQgdQDfgDkQhEBhMrogpIoophwFlADhQwA2epQIznZBzBTrBbw78xtQLVeqwKVFp508MQgLCRTqZOVHIgjRzxeqSxvtgFTZGemgE5QgAkNoRqBDpUKj7GXKIHsVKWDYYtMGeggQn7MBvVMRCd48qPS6nuHAIHKeKVQKKP8TP3Gywmlu3LPcWKULp2ktgFLMC9mrVCHpIFgUtRhgEa/CY1KFWRc9uSmaM1Ah7yQ1gIokCY1mIMBZMj0RUNjDD59g/JBL+DYKo1YQzNYDCDAK1W2SquhKzohUhz9oJ4OIOOUhWT0g+BobVdiC/DoBO5cvUpRVB8UYK+UYMVVQBppRitcQQAtickCPFJaKBkdpFftPT/YFBUKIFqrVlGeAMjT2VZRBQjyg/YZ1QIq0qFYqlQrRXSlYuleHcf4BAvI5FE+lF5vVoACOgFVOk9UGZGns20PFVA/cNyYcVrEAtIh2iqqAI90kM4RqytBpcVyqwIYkHFLoGzNmtAJWymKSlYjgWwBDp9QjacjJOMqUyyp3VA+aMonC4BWUuqdAAHF0lLR1ifgFJWJZiAZbwJQK+20jo92bbUecWXpNLQAMmxcWwkaHZEFh6u3ri76Bpygddx4TisxcoR+z7b3oTc4282G9J5wBSjAc2oT251UWORS6CSxAEJnnu0eLk29g1oJ6KBdYjWOc7Aqvmfk0js42M5op2vaSnEU8RBkdGhzFADo93iejVHzLTZH2cO6q0RXTXtfOnvuzTSWNhLUIbL1g7bjBU1N0c4DbWpCntbvjQCdywpgsih2em3BhwDauJqMq72K7cUSj55WWkAZp542wafEAwdqtsG34rbtIX9Zk6yOyADgpwbovWbsrn6mGSUh2rAjSpuaQIqGHstLZFRYRXVQHNMn4tZ7Kg6t40MKkx+7K8ZLDe6Bv6Sz9NDdJm7bp/sEuzfP9kLewbDzU/onOOeGaHcmHi40OPTmscu7rtLuXomtPAjRti3NVh7kZfNPMfJoMcbRjriuU8eevNnGenz/KSd97yz35E1LFfq6eFc+GvmI9U0mosnj+7OpN3AzqfY38cBwumj+MiUWlrP/3Z5/LK8P76v6h9PT03XTv/7drvb11fXfAnz7Bw==);lineShape=1;fontSize=14;shadow=0;fontStyle=0;fillColor=#f5f5f5;fontColor=#333333;strokeColor=#666666;" vertex="1" parent="1">
                    <mxGeometry x="72.43478578000213" y="233.42028131761185" width="25.56403360390118" height="25.533805173270935" as="geometry"/>
                </mxCell>
                <mxCell id="39" value="" style="shape=stencil(7VrLbhw3EPyavTZINp9nx/kPA5ajRRTJkOU8/j7NLDg7LO7UwkAOPui2GrFmmmR19YM86Ydvj5++PpyC+/b2+vL7w1/nz2+PJ/3lFML5+fHh9fxmv0768aQfvry8Pvz2+vL9+fPl76+f+sj+64+XP/sb/r7gfJTmOiq4fy5PWpXQ/nvy6wXwdH7eA5LENgFqFXUU0GZASRIyAWTxYQLkJLlQgJsBKYlngO19AxCjxEoAUeoM0CjFE0CQNgNCkcxWyUmtMyBKiseALHWec6jiyJzN3nmfVSWS8Sp+Hh+dhHQ8Pkic7YmF2q8SYM+iKBlvLErz+CaBbFmTlmcSeVG2xWks3wZwkglNg0MSpSJeCSBLjDPATCKuph7nHFUaYZ3mQcptk43pZNLa0DeNpoVMOnpJ8xeCzYFMugPmL/hC98FolnQGmOIQz+mAhgDHTHJSZuqZe7NVMkBbAMp8zYuvCGDUMEAEgA4BOQJUtwDYKoVhwB4QKADYanOgyxqkKAIC/wK4qAEi8Qdjv19MquwLJjIASGNnDgEZAemOPwCgDP4eAUBmTEcS8WkjX5y/cNWRQ8DMJb2zcX4I6SYzYYj/0Sq5eadjE89WackZTOwzCSaxoswke0J22pQUyGfqXVg4iehABmiEGibued4HC0BMBOx9CpO2PIUsa1akhs0qkklbWqQQHzIV41xQBDodGcByiiWgJLJx9oUG8aHRvCdn1FbLDFhQtEkHkJnC56ALwPPMymPqY2GVWNR5AIskhTMJdC9Q2bPxmOoNHTwaX2Za+PHgcDxomCjx5m7PPN6NLOL2+Ipy4ajz2/iA76f21EHJ63imRjYeknlHCdQTTYfjCaVtfIo4ntnTpKL9LG6asEB9ZIrPfNINUbiOZzmejYf1STR5yWHJdhxXxogG9ZyQxEBTFSjwAo/jxVZ81t5e7RCfKToKxl25UwmpS0bS9XqHmFQ3EmyrqoNXtwFbfbarLyrZh2ol4axDpmSRARbiZZ51toABx9SYuUJbIlQPcgxgtT8E/sZNylg3W5RltX8rw4Bd8tKIO3STIGg6mmp3QEIAK3kMgAGk3ftCdghIHNAqAgKhhq1SXEzyxEXbEhSU54RtUXnl+ZQBoM4zQCE6aYC6tDCYanRARUAmItABsy71XJrtQ5XsEcCaDNdm3C43d2zSZcjWDsD6Nn2nIwKYGHcH8ssX7rB1WaVGxLhljA+9zGJzyINq+7yWq8bq06zOMwBUkgZw3KS4sDWzjTMhiwhgfVXbh9WBWJw2AHaH2sgkjsgHq6R3em71xqQTd6CySCWl95K79Y37XwFtcHMfH1gz2TmMKKnwSbSlwDDZ4DELSnqLu3RdrbyeJ9ELM0YmjypwreRu5w4Vq1ur5FhXv6YhQ7tUgBV61WObrifWLOmrmMNdi/zbgDiYsG11pT2A4m9IH4uKtoiQYWmkc8hbJ3LX7WEuZ8yBmOUrr5ZsEedVsnJYCVvX8i1JY+XSe3n7Xt7+zOXtInXGN9ZwUoyCvCXcu3LQdHY0OTeRgKMzv2UbtwHLjtkUmLoXh9obGk2oyrKmmsVxkxQyMJ6n5oLHPFY/s/zIlhWqKqufWQaWA/pZ91TuyAVOAO0VRN17ExvOGHWc2N0GLGdbnVzsxCOPTuKuS01PnnRUmtukEzWpH4b9UDmsa1UVqH9qwRsG/TyCnTwX3IeQaZQ1k7Cf1O6dqbyfMb6fMR440E93xqh4SO8LzQkNUJb4wMS4azWExEp32jwOG1CFJiWqmNfGJJldligjydzJfSQ+fc0Cd+UC22lbdV3UmzY+kN02vjJpXao83lJ22Lnp5QuxZyk7Y6EV2KL0d5qGS7NXA01LIrafAz/vrCP07VjKHMfqFGhidhPZRbKEbaF+kkdI1/1qCVXs2MAvuX/kqm2ACLTmhysGSEvpX9hFsopFbUn84tPS5amVO07Bi0/tPsAjoLJVWvodrVGZ7xtXEMCuYfiliWmAwu8Ygvf0RhH7Qh5EuJYBvLDyGVW4f4JfWYMkwwCVOwSwzwCs/dw9qCHg3i26xSSWpff7pwCoNFH68Qur9wH243o/9sv56elyvXb/f7xPa48ud3H1478=);lineShape=1;fontSize=14;shadow=0;fontStyle=0;fillColor=#f5f5f5;fontColor=#333333;strokeColor=#666666;" vertex="1" parent="1">
                    <mxGeometry x="90.81728456589576" y="212.63928833657906" width="44.0988693644922" height="37.971846293665976" as="geometry"/>
                </mxCell>
                <mxCell id="40" value="" style="shape=stencil(hVbLTiMxEPyauZb8bvvMwn8gETYjsgkKgV3+Hluj8U47pLg5nq70o6rbPfm7t/3j625y5u1yPr3s/s5Pl/3kf03Ozcf97jxf6mny95O/ez6dd7/Pp/fj0/L79bFZttOf00f7h38LLgiMbyhnPpebjLhcPCz2h/m4sS+CnJS9JARDAAWlaAcWMVNAFA1IKIkAElJQgGI5oAZgNCDBEEAOkAGQkcNtQK1J0SFZY2BImVKBGZIoCI4ALLImrlJj5TYg9hw7wCMwgIMfpJEhJKRor7RUPVjuwWoxZVhSpZaD9iAePtIqiVZfLXQizDUeNNVJ4IlcG9UDIK0+b4kppdFDITlUuQbdEGIoD60hnAYEZMJDa7mhqQsFbNTcqY6wrKvr3MhafQaeqK+Jc9B3TYJknav8tZhqkxrGXFnn0KblMlGf2KtBw8uUwqrmbUhEG1Eg+SppItfoxw5qZWUeKsCNADa/q71OwUUEolazarnb21XvN+wHIVlBIvEYRB2/9YiEA4cwTD0kNpIgWnUJlmRrDay274R8bx/XYvfw4UgXtM9acobG42TUA392vIeLgz3Tm+8vQKd3nTXf2of+AKz2EY6sF20d0fnydeTn9aUe/u8+z/PhsKxO2+/jrlSvlj3L338B);lineShape=1;fontSize=14;shadow=0;fontStyle=0;fillColor=#f5f5f5;fontColor=#333333;strokeColor=#666666;" vertex="1" parent="1">
                    <mxGeometry x="111.26331654784667" y="196.2655100856059" width="2.9270655693114804" height="4.322300354487879" as="geometry"/>
                </mxCell>
                <mxCell id="41" value="" style="shape=stencil(7VlJbhxHEHzNXBO1L2dZ/ocAUebANClQlG39XlEe1XAqujsIHW34NmxmdFVukUuf4rsv9x8+352C+/Ly/PT73V/njy/3p/jLKYTz4/3d8/kFv07x/Sm++/T0fPfb89PXx4+Xvz9/GJLj1x9Pf443/H3BpWotDVRw3348cZb7P09+vQAezo+3gGQ5LoCYLToB8BbDCggWxAmxWGgLIDR5QsSN8woo5soxICQrZXNCOwb4btWzDj/MsA9IVtcTYjcndPDO4mpWeCb7Y0BlI+UqjZStr14o1bp4f7FYF/narIRj+T4NOOVbMye87Dc+6EmaNDhrqw96sSpOgIkanaAjFYHnVp27Ny+uhFyI65UatBJGzcF8X61atNcau6EAIJQuYUb+NS7yjKx9QLSwnpCiVQXw1lcdkAsqMqBDXykmRPNK6WTNLQCfLakTQABrcHfzWfitmF/l02TBfflgjRhp2uBIPleSz4KPIJ8iySsDDfn1/V56APKlkbyvQj5yELlJZ0fyuZF80nkTPMl7Qb+Q7yzv1Puzlczyyp6FyQvy6j7VHL8/KHtWK4nkZTy06f5X+a707dZXf0EhEc85WlvjzYf5ZB/QOWEQQSoiCjywIQknTFQR0isAQaW6hIqCs/pgaCWu1PKsp1cj6Rre4dTVa6XNJ/uAyDrghKQBRKXZzwKxD0jmid3dTL0jQIkMUKkzSuRqVgSXKmkowmQlAKLwQ6+c/AMgsrM3VhqAJOgdgN4YUJWVoKJjKwWlQ+eSBkBTV+p8JXg6iXwAoNKVdAIB4BMDZGi0TQKFqdWR49JKAsg41R4hNNImRb3qIZGiGx1Uk4rwrnWjtDohcbQOs6rgS/Pft457A0BXcvOSRwC2EoJPnZBnY30b3jqne2SA6qfguLY5QaZondF/C9DBVzdXKjqBOPicnC8AaBuqLCK8vXM7rlYs8POIcSkqKcGqyrnGc2TVWqBoFZrbopyFURZpDitdNsMN4bx6AiOE6k5q4u4WI4lq9zCZEmAsHVS34Zg3YpSFFzxUaWOgR5LUmDcwvypPo3uhkaFKNv5/xPjvjxiV5f9FI8YoYmtJCLOj2ZfPs4a9xr9iFUwY1KgiwaIoCIN0KAGCjAiwiqfFZZA1Ct1+os4WZ6or1U13XmQQbXcvpUp2x/vqZiunukK4mVajrcw12v4OrG9WKXEOl/tbtj73UVdAk3OY79y+3NTRo90o2bXr+XYzVrUmu3PH3AWrVilPZX+4TW2DeXqGH7PwWuRdLdgjiPe3SSXXyK6y5vvIPSq8mLTP0qZeqqkQ2U5OHvyudq+bPnvsexVgM++EII2aAkdFSNPOR5TKe8suT0DzR8mGNkSNwoMkCXDN1yMAZWfUm84BqAxQ08jYFtM62EmWzIl3TwAolgQgEq16Sdxo1kgHABSHYaSjHhi+d+pKnj/vACDN6rh/TG+0U+ipA+ugJtvUOR8AkA1k489s6Y2PFz/95e9tAH68fmj8dH54uHynvP0/f5jEo8tHzfj+Ow==);lineShape=1;fontSize=14;shadow=0;fontStyle=0;fillColor=#f5f5f5;fontColor=#333333;strokeColor=#666666;" vertex="1" parent="1">
                    <mxGeometry x="124.84779246468179" y="200.83996692140659" width="19.696168967691392" height="30.730693880286594" as="geometry"/>
                </mxCell>
                <mxCell id="42" value="" style="shape=stencil(7VnLchs3EPwaXlEzGDzPjvMfrrIcsaJILll5/X1mw4BaNLjN8i0H36gVeoF59fRgT/bh2+Onrw+nKN/eXl9+ffjz/Pnt8WQ/nWI8Pz8+vJ7f/NfJPp7sw5eX14dfXl9+f/58+fvrp23l9uu3lz+2N/x1wVkw3UBR/r48kJDl3wc/X5Y/nZ93y2uwOi1PIdrxcrVQ4rReNdROAC2kPANaiO0Y8H6AAYglpHIMMAltNsFy6JUAWtDZhlSCkR1SDjrvkEto8RiQNcQ5CMV3IF7y9+kMqCkk4qXcxwEGoEkwAigx2OzWZqGRI5UUpMyAFCpxqwOizIA8XnEIMASwODhACwJKJgALvSGgk/R2QAUbyoj9EcAyAqgNcRxgB2CRdkDqCMiJAiQtAGa0hrIYndgOS3o7ILJckpFqO4Awo2XEdRc4VnHbDhBpG2443GHOpdooUTrAAOB+4zbE2QZPlsZ3AKrMnt48DjLHIVXuJQ19tiFJqLyA8nwkS8PRtwEe15mXNnom9VBlmHil+x6EHKk6RwjuwPqDE6NUtIEV0MZzDb0kJHCtB5tt8IZS9RjQPRFmEshplNRtQA1pNtqrvJAj9Y4Az9ZMUkPlauOuozCrfQtQGq3SJudGgJvcD0oC4f/uc+T8FcxNayD8kJnlhmH27fxwO/0qqo3ueoYluNs4c1/31s6KtCMNuFmNWF1ySNBS0gjNkXiAtujJUUmH2AAZAbTLyaJnrlx1yH2zDU4MlZMlEL4DaB/VkBQBxlq7YvbVuxILOnXl2nvVApvRXJ7EtLiVdQgbJ94BEjuSYQVtqcEFEIjpGkfsj4yuBQF33BorAjIPXDUE3Omj2hYAT76yHIkqJhkzz95LXDxAH/U4NNIWtxJdAkfrQVAmOkC5xLKlgO7omRoRkJnaUBwItppmO1xnz32JcvVt6w7sSHGYuAPQXPJ6yAi4M3LYwq3xu0aOewAXtqC+jY7gW/ZDQ2lDLd8GFDS6x9EmbwM6SqyeR086bNQAqDS9XYvkggCm+rri+Nr5jOJtXBMaXUikt/eBwqpjRDgCAM24JFMmyQrO7HdYY7MBLio8NQgJdMFc8hlFSKS3QW8G+IzCGnvTQe5XgI6ud6TIwK1WaAdyRYYDQeRTUAt9JjLT8eRoCgLWsEwrziUc9DgfOTqjmYTTqLuVHslGIuyHS04zdUmNO0qgryMHv2HChtI43f+4kvqvpH5cSf3/r6RckdnMGp6t7MY1L6zRlI672caJrwWUqdGp4SxaKr3uT3G5+a70ZsN5Du/WK7/ur8hLzt6dkEBcxLq/IpEjacarEO3US+o9bt5BIz1SGlPe1UlUBwjWp1Kq95ZvsJxdOwreCfKBb7n1Udo7Bbu50BqQ4ej35WwAEGz9MuT6wXLgLRlkfDuuONoKnZ0VJSq/GIpDN+2Wk7NHvHgSOnwZRlVoVX3nR8C7y/3H+/fGL+enp8vnyv3/8fukP7p827SP/wA=);lineShape=1;fontSize=14;shadow=0;fontStyle=0;fillColor=#f5f5f5;fontColor=#333333;strokeColor=#666666;" vertex="1" parent="1">
                    <mxGeometry x="129.43637250163397" y="181.4341956442987" width="30.814471404866936" height="46.46014322186329" as="geometry"/>
                </mxCell>
                <mxCell id="43" value="" style="shape=stencil(lVfbbtswDP0avxKSSN2eu+4/CjRdgmVJkWZb+/ejZ6ix6PikAfrg2jwhRR4eUgM/vG2fXjdDcG/n0/Hn5u/u+bwd+NsQwu6w3Zx2Z30a+HHgh5fjafPjdPx9eJ7+f30aLcenX8c/4y+8T7hEihj/3Mf0wpOT/y++T+b73WFm7gPF2Nt7yrwOCIFc6gBBqDoAqJSkA7BQjusALiS5A0gin9cBUij1Z46FAghJP8feQ6pU6zog5fa5AYqjWNYBOVHus1QKVQAobD1UIQFZKpW4L1xNlECWKpMYD1ppkCUFFLaAAEIaI+7TWh0VFFJcnMFRQiEl4mIBAtJaM4lYQEQelHxhERLyUCmwBSAuKSBnm1YBIXnnyDmLKAm6KCZNgRiogAKELSCjypVGnU8Ak/ewEKYhFABD0g7yFiDIQ2z0n3sASqZ0zXzXGWRRh9BOtdZBMS3qgELi1vNfrTQ3cs4AjNgn1+iK+B3b/PhqQyRyCw+w5TK5agGwqUsr0zwkVLiyENcbwqQz6z7p0/mRLCCjkJaAQB7rzJ0Aaf31OdkvQnJ9pAgVk6bSZvf1KVfJm5giHO3Z211AC+EAv1OwPVo8xbAOiEyh95AdXE9EAf0ZYoUqwGxVQJTAICTdjwy/ObaF5brg65TrlSxEuJMlm1Xd6gTUzdn+Ua4CJi3Gj7/x664Ycw8K4JoiNnN3I5gcjTkSF1VDb8wD4JtvWngxR7EHO6P07Ig6TdZm5oiadpVXc7QGN57PjgpIE+066OC+GakuygQpaWLH15Cb5vpwufG87Pb76cI0/25vSPpqul3x4z8=);lineShape=1;fontSize=14;shadow=0;fontStyle=0;fillColor=#f5f5f5;fontColor=#333333;strokeColor=#666666;" vertex="1" parent="1">
                    <mxGeometry x="156.43410601404935" y="172.43671399771438" width="17.886791431902566" height="39.87010956697384" as="geometry"/>
                </mxCell>
                <mxCell id="44" value="" style="shape=stencil(lVjLctswDPwaXzEk+ALOafofmYnTeJrGGSd9/X2heiiLkLWe3GyJKxLAYgFwl+7enx/e9jsO7x+n4/f978Pjx/MufdkxH16f96fDh/3apftduns6nvbfTsefr4/n/28P08rp14/jr+kLf864yNTihOLw9/ykZArt/5OvZ8DL4XUJKFQcQClkABCKbQBUJo3bAI6U6ghoFBgAMskIaPaJAgBCNY+AQiltAxJTGo1ujQoCNBIeAZkUuDVHyiOgKjGwIc9hWsRB0A6lO7EDslACbrUdeNwhlW7Vlg1FBwAnahV6icMAiIlUACCu4gC5x4XiuD71yG9xtalbL4CqU/Ykdx4G32+eqDFTQjHru88OtSfg+/Y1GY/fKIXt9ZXC6P+spIDWSnFcb6mcFPgnUS4+DRCro1IeLZBMGVBocvgYMeUe8+sUKt3CGWCsBjZY3sTxSFrhkUxAneCpsQhFIfncFyEFOzQmHnkhTALyxl47t1ocGgCYiU4sTF0K8NLFJwtABJFWy9yRGkUgtw3Q2AMaiLQK5bgCgGzTuZAtSxsInAFK8QCUDwYQ8QAFO8QQfIrWANmn8wdnQKSActqMEA8oKHLmFPUARQDx3DDZYOTX1sm5BKDItSvCBNlXfRdjNghya/V0NUBGbi2+lFjgkM5MgOwBqD4bQFc5isqt2ZCCBzBWAXEJIbg+NMrqAQ0BxIvrbcCVI+EczWujMb1d4Ca3ojho71kWgYNs1a7uS2rcONKKrTd05nMAKV4rrcFFncnUzo5l1D5RQeCqvXZV0VQDHKkUL65TlqNmyY40UmOhntd7gdyVcd7CtA11G9nrjOZeWbempercVOEO2ueQ5WQCilzuPf8c6EQRhCH6KBQsMqvyc+nZN9Y7XbUOGs09yeeOtdQFFsRu3tyyQqGPq9qDKXFp4C/rM/BPWuVBhr3eNCPxymDAoFy7RC88iiywFt5ZYC0v2sEYwGOi2WBYUKKt2p5JvxCg+p6kzW64DuBOyhmgveXd7OpHwI2OmMWPVoLnBvO6G24brlTTKONuJTIelsoqlxWOAcYcV21NZJFbV5XNqgKDE1WfnKVCsai+gzENR5WzUhW/PoCg1Z5ai7uqDJK/+em/JMjT1mm/WJ9AAKx5cTMPw4BJr/KL9RX1X1SDX18QIYK/OZsAiHLR1zMDoBHJAK16FwW0w+rmzADo5uzzF5K3Afbjcv/5dHh5OV+fLt/7+1J7dL5rTff/AA==);lineShape=1;fontSize=14;shadow=0;fontStyle=0;fillColor=#f5f5f5;fontColor=#333333;strokeColor=#666666;" vertex="1" parent="1">
                    <mxGeometry x="164.69210184129633" y="160.48974109397284" width="23.439797411506333" height="28.101022191696757" as="geometry"/>
                </mxCell>
                <mxCell id="45" value="" style="shape=stencil(rVjZbhsxDPwavxI6qIPPafofAeI0Rt04cJIef1+qhrYryjtGgb7Za44lDofUaHfx7u354XW/C+7t/Xz6uv9xeHx/3sVPuxAOL8/78+FdP+3i/S7ePZ3O+y/n08fL4+X760OLbJ++nb63f/h5wXmqvoGC+3V5kALl+ufJ50v88fCyiq/EJt6Tz9vxPpKvA4ArFbCAFxI3AphEtgGhUOIBEIUybwMiUykjIJCkbQA7CwiJGOTAiSQMAF8oBwAQ8jICHEWQtAJqGlmi6kA8UxhZjeQQR6WrYKkzJVQEoRBsAjUCgJ8yruQAwGuC44608AFsSTdQRqnGShFUTfrfLSk7yh4ukEZOcyAGpGoKeVRqCbAXlCQ3bqn6W2VIo1JrhWXQVqnjCsIUgZCUEzcWWrQMgKUkXcgrQAIrZP15lLYkKqA9S6I4FloCbIbK5JNlCbWnbsCZwukcBLTKMh9WAIe0l8mPtJZCFW0p2zGpgFwAoFDhCQAmt1Q7VxVQ0ArTDGhJA2kooEyACBpIATLRWlAdFDD2Q9FJi1fIYgEJr2DOt7KM5i1ajTSqthQuXC4W4LGWKk8AtKXcN7DeEmigJm+2ScM6JDs1FBBR0mzPN620YIBMgITkPU0NBXgwWxVgRqX2gyCWMuU4NRDqh0KcpxbFWgp1WgFNDekNuc4BA9LUcQEDjPVpdYDH9KK1lTag+sR6VgXw/wRUZXEshDh4srfjwAAYnrtZeTXHqKoPAPQYNQZuRdx1y1e6e1mW0KxB6WLuo3EBZGgS1RMae6I0eeSYsk2ihk7chiVLpnCxK/46SxTGjlNHlkB8JBnLpvaGwZRJ1svEGyPAGr6QsUOcCNInBSygtj+PAMG+nu0gjvD6xtH2Pxad8mcOXNddxPX4SULcD6/r8dwlvLpnoLtbu54aRrF1a3e3uWZAE81Cj6JTkgPgVG+bPALYQ8/dimzu0LkL97qMijVWjQZ06Z4uGmkRynWWbKNpIdFEjd1EreLRJWAx8Ot4sJ8w7V/3A2ThbQk0HpVAL7PZxiPT5qxMlc8CTkFn7X8TOqjwdGZqPJq8Gj+6oxThncpZY6HxDP8/ZxsPTwLrmlPoDG/E/9trqtvx+uHvO7Gnw/F4eaW2/t2+Q9NHl/dv8f43);lineShape=1;fontSize=14;shadow=0;fontStyle=0;fillColor=#f5f5f5;fontColor=#333333;strokeColor=#666666;" vertex="1" parent="1">
                    <mxGeometry x="95.41130796933453" y="260.550734505239" width="19.52273349952361" height="39.694402833611434" as="geometry"/>
                </mxCell>
                <mxCell id="46" value="" style="shape=stencil(lVjZctswDPwav2JIguDxnKb/kZk4tadunHHc6+8L1UNVgOTN9E2WsSKOBbDSjh/eD09v+10K79fL+ev+5/H5etjxp11Kx9fD/nK86tWOH3f88HK+7L9czt9fn2+/354my+nq2/nH9IRfN1ygECZQCr9vN2qjWv/e+XyzPx1fF/aRQjX2JZIA+0QSjX3uJP2+PVO3z89MOd+3L8TF2HOjGIH/kZINmIV6AAAhsYAcqDQAaCTJAISpJpAizamNoUaKIEeapGgBXV0CSdIsuay2CoNmfZ6jRacMguZM1bpUCuQRdyoWIJEacCnrCWwLlykjgJ5gAVHJBWKQTsEC5ubYpl4d588hjCRs2tc8cj47VIkBMVqi1GzIlRoAKA2q2CpojoBLvXtytwC5qoCWLSBSQf0WVhNGwyoCj+iWGU37BxyhgGobrilXQOEUwHYotbnJtwHzTJwBhQJoOAXEFSChQlQS8YDIAKAt3X0MBZ1QSLLPUkelnj1e1KHjE3zQiToqXPH8VjK1D2JwgIBjqKNMC0BCla4bgw81tVY6JQ+AdWjU2ANglpSt4mPIYLRO/SA+rYz7wa8HnTxgAU0ARz4ee/ju2Fi1KOMTsiOf4AZqq6mB97oCeN2imEs+rQpAhaurfhBqaPKVISwWACQE/huga58tQJdYAQBVg16PRbizqjLH0lslYAJsLTJm9bwVI3UwW6V58gkcGqq+3JqOhRrQAbkNhbpYu2hjqUQtdp+IDNm7LX5WZK0BDo1JXq1XHHBJBVy0LnWBHapJdCJ0sbm3N7vKJetTxzpX0+58qkwCdpzqNbeBpMIWjRq1dSln6FL1QlpFKBp8Mogztw8elOJfNnTWC+K2f7tqsxDfZt6QzItJL4javhV00GdEVGqrOR8QT1fCiuFrQxrDZ2GPOi15kqq9APs4FuXCHq3/MCbPUqsC/oSVfI5ju9+xjy7eMDJ8x961mPIHbZDNt3lQr4/f/vXi36eDl+PpdPvysPzff2rQW7fPFPz4Bw==);lineShape=1;fontSize=14;shadow=0;fontStyle=0;fillColor=#f5f5f5;fontColor=#333333;strokeColor=#666666;" vertex="1" parent="1">
                    <mxGeometry x="115.31249455552393" y="268.8435391331129" width="26.42932321835974" height="15.357907818153421" as="geometry"/>
                </mxCell>
                <mxCell id="47" value="" style="shape=stencil(lVfZctswDPwavWJIgOdzmv5HZuLUnrpxxnF6/H2hahiLkLmevinKrgUuFgcneXjfP73tJnbvl/Pp++7X4fmyn+TLxHx43e/Oh4s+TfI4ycPL6bz7dj59vD4vf789zcj56cfp5/wLvxdepMQzid2f5UUOFOXfm68L/nh4XeF9opx7QqEcxgT9gu8JhSnymCCBgu8JiUoaE0IgFztC9RTimBCFgvSEROLGhOSpuJ5QyIFDp0rREDIxOEPWPJgzCPk6JhS/USlSRoRI1SQukgMhlUo+dYTExOALqnruzxAKCVBJj5hKRxChCvJQNdO1IzA3d40I3B/aO6oFEByl3hqekof4wAbP6MiOYq+RowKsqpo6Z/ARxaM5YINnUM6VKQWDR6aYU5YtHmcsVYtHCYsULZ6RPqlZcqUP0l/bl7f6I09r6+nxvjlqhI/GcK2wR3hn/VOxPtzjub0YFkAyeEHxyPb3BcXDzV6reJB/PEkxeNRItV6y1TMjP7vW+a94QfEo3vr5Tn8o1j8J6e9tPI4E1a/KbevXo/qSLf5OPYqNxyE9Ywt3FQ/SJ9kO7dqsHeGT/f2M6+u/8N4520DnCYAqvlIxjmY4iZVgtgndYBzKcW4b1mpOBvSFQHUziSHBb5a0SAHYouTmstXOFcAZisre1/HVWbcXHN9U/yRU6KRY7aFXuby9B5Y2SldLVwLmk2qbkZZfAdXM1U6zUmC7u7r/kyDQfZ7twqJKo0Q4q1JOcEBt+p3iUQPQcu/3A3VSBifelNvsPBiP2d0Vj2yh60CfMr2voJVRfeosPoGB4+28VDxqYGrrYPEM4ucb8aDuIq3Q13ig52bhneMB8cdNvnAdR7sf37kv3r9f6sP1cvpyOB6Xu+36//Yyq6+Wi7A8/gU=);lineShape=1;fontSize=14;shadow=0;fontStyle=0;fillColor=#f5f5f5;fontColor=#333333;strokeColor=#666666;" vertex="1" parent="1">
                    <mxGeometry x="139.42187795954214" y="228.38400281771465" width="17.55880393346729" height="47.23697959281276" as="geometry"/>
                </mxCell>
                <mxCell id="48" value="" style="shape=stencil(lVhJchsxDHyNriiSALez4/zDVZYjVRTLJSvb7wNGxckQHHWS22iE5pCNxsYdP7wfnt72u+Der5fz5/334/P1sOMPuxCOr4f95XjVpx0/7vjh5XzZf7qcv74+336/PTXL9vTl/K2t8OOG84V8aqjgft7esFAtv998vAFOx9cVIDBlNwBiII73AexIZACkRI4BIJLEAZCZCviCeOLxCyVQqABQyI1nKJVyug+IkeLIUhXifB+QmFIdAZEC+EL2fccLIJD3AFA668sZIiW5DyhCUkZaEyXgaeXE+CFFqsAPVaXhR2kIuQAAqXPSAYIPPQPYkwNnmLcUPBUgvlIojYf2Gg/AccWTH2n1jjyQhnq65tEP5IBYk++kL6ySAFKjKmlcXzoH28HgKBZrD3Sk8Rx5lAXcfyN8XL90AjbtvQaK8QDDAyvfxQAKFRRrJGOo6YkjEJF0iS0ESc8f2wxRdda+QPsYRvvYd7jNKNVq7Su0N5lCUqd4m1Cbu5o9UISGYJr2A/hXAcl0XrCfJZ5WfGZob7K7MMxbai/WHmUhZ1O1Zi0G/DjKY8BowUIRqeXMWXtUzqYEofZo/4GSn9YH9tz/XdlHEMFT7WtZHXUIk54DFVS+e75Z+SuDBMG9oVnpJ6IMR2nScwD5gW0FUPsC1g+dvVV8eexfb+0DyqBTVU2wSDrb0QnuJNxUYCLMh663eyv+A/DXVvwy4Od/7YX8uJ8WcUCfpat3qS8R7r/Vq1EQFfpLD2AdTIIaZGcP4EkA/63Cjw5zsC3TDkIme7B+CrbDdzA/52ATVoDxqN284SfCEaWqO01L5mF7X7PNcE3j4MTeTZprjShqdWtPaWuRolY3WyfHv3TfwabdVLCsM/H4haxTEBoInJ2C2ogAAOpoIyRt4BNgSccmMcp2WHuRe6uxfKLgdjdOe2IYPVysunXQiqjchJ59VoMW6ofaAGAm5NJ9uS2/ajtMHbSQmHSGCSOvnGDLqADvLAANvH4qyjrGo6LctuQswKOYE6sNFugHBeTpagNdPGhaN40mc58G7wGSWIAgPyRbShTA6AzJ9iINAELOa9qYthSRp7MtDoy7ZQXUYGmF81mZaMVXTP9wJ6UPf260Xo6n0+1CbP2/vQHTV7fbM378BQ==);lineShape=1;fontSize=14;shadow=0;fontStyle=0;fillColor=#f5f5f5;fontColor=#333333;strokeColor=#666666;" vertex="1" parent="1">
                    <mxGeometry x="372.6766498895304" y="228.3656040099919" width="26.687467991711628" height="21.21628675678255" as="geometry"/>
                </mxCell>
                <mxCell id="49" value="" style="shape=stencil(lVfLctswDPwaXTEk+D6n6X9kJk6tqWtnHLdN/r5kNVQMKFyPb7K8KxILLEBO7uFt//S6m9i8Xc6nn7u/8/NlP7lvE/N83O/O86U+Te5xcg8vp/Pux/n0+/i8/H59asj29Ov0p33hfeEZctxIbD6WF9lSsP/ffF/wh/l4hXcUjMCnSDaO8daQkQtEJhsAwVORKwSmAAjMlJwgeEseEJylbAWBCyUQs2cqSRBspgyCDp5SlKqSK2N8jMRSpBpTGuNTJg4CX1U2Y3wxPaefeI/wVQ+VA+IM8VnjE9Cn4YusIjIgYxVfZLylV9UQL79vcUlYswq4MjxZLFHJkhApYo2KzHEtouKwSDLomrWIo1ZVxxY6pxLihhA9JISkt5Rx0F4lopDDW/LSzDYR4zz4TeIirj1NYDLA/dstld4DhyKpFkkepy3ISgq93QyzlhTe4f0njUcdvtWdrIpIARdFkfrUZnefc2pdA8JX5nTEOATt/9DNNCR4bU7GQWcZRHWCxW5OckvVaw4T4oaAptT9hM1UqC0MqdTGTtQEf2OuKTcXWBttcCpZfa+Wr0ez06XhAqzWNvxlpn2Edm6jWAYdMhye7QAj+3Zcx+nwiCQNmgo0hOsRrg3JkwEtr57xVNoMPi+YPu3XBQps86a36Cs8g5a3WmXF5y7BAK8EKjhnFe+0QEhQ0wfAimfyeD8qXgO7xeb7ucaL8bKCcryRLyv3k3033givjqcMjb9Gd3VJKDC/910qbuPrw+cN5mU+HJYL0PX/+sZTXy23Jff4Dw==);lineShape=1;fontSize=14;shadow=0;fontStyle=0;fillColor=#f5f5f5;fontColor=#333333;strokeColor=#666666;" vertex="1" parent="1">
                    <mxGeometry x="356.4348450375362" y="261.45576563542363" width="166.27630023493248" height="6.109069090515732" as="geometry"/>
                </mxCell>
                <mxCell id="50" value="" style="shape=stencil(lVjbUttADP2avGq0q73pmdL/YIZQMqWECdDL31duuk5Wtg/DWzBH9up2dLQ7uXl9vHvZ7yK/vp2O3/e/Dvdvjzv5sovx8Py4Px3e7NdObndy83A87b+dju/P9+e/X+4m5PTrx/Hn9IbfZ7scKOtkFfnP+UmkUv49+HrGPx2er/CpUGsDPlNoAB8o5QEfhJJsG0ijkMYDMdUIDDJJGQ2UagYGicLosh0yoiNliqMPOVFO0Ic0+lAaRRQloTJGtTFlcCRLGzsDpQyilJU0DgZqXvG2QVEKzqBSBmGtjXiMkhZSUEotUxp9UKEIwqqWpjHTrZIEYLBIXNVevusG9r7R6Rp6KrcMWMZMS6/fdYNEcfxCtgYCeWiN1FVrpYTCGnptzgZMUUHiAukYJRHIAYV9ecdKBeQhNZ84Y5mAOq70QphZo1ID5R2FeAzrRDOgWsPcX7NBoAISFzzLhJk5V/Hs+23CAw/WziMgRNwp6wrPEO+60yJQQIAMzx4fIT6MeOs0CBdx8Ay6wM5aHRwxhYVCHZxBroKPvcErgmtxcDQC49LVBJol+oFs0wy4Gqm6OmDYWmt4NMvsOM3jFb7/PyNf1SWqGwtm8vgEomm5Wrw/QzzXBR6QG3fquz4PrEw3MQyPBgD70rR4VnD+tT4UjHdTmBTCHdEqZHLuEuACRwOYfXJnUbHFsU4QEINUfRbOfs4pzJTNFIcPAfKC1MXUMokDDJL2f88GmDVLoDZWv8lvRCbVJvlYPoLHXBPPhSZmET+YKHMNbytCQKLMNojxC6amBVSFGgGOUTKNxYj9edE0k8bBuq+OXWwqikHXm1J1Xpv+Rgat+MyZOEUCxeS0IxZVWEy2YiTHjJc4rO8E9gk3VU3/AgPTceqG/LyHbG1/Ifi4JjCJbdWqo4G5hYSfxC6Gr6qpImm5YI2EU21fKK7ntHPslg9ur7GurqAjrMM80UR4pJT9EhFJkf5Wv0Mw3P2yjZjk8IhZDe+y9kHhLbZX7vJ9C5/8eZDGMXwtDo/GVI5+e2C46ho+en8RbeeFBAxQMU54VxB4uY/9duGCbyhf0e/29gBQi8Wz+UsitBV/9lLpY7z9uNxgPRyens4XYNf/9zde9uh8Wya3fwE=);lineShape=1;fontSize=14;shadow=0;fontStyle=0;fillColor=#f5f5f5;fontColor=#333333;strokeColor=#666666;" vertex="1" parent="1">
                    <mxGeometry x="376.51957735969086" y="293.43488726650264" width="36.38309865551855" height="39.55970411101009" as="geometry"/>
                </mxCell>
                <mxCell id="51" value="" style="shape=stencil(lVfLctswDPwaXTEgQRLkOU3/IzNxak1dO+O4r78vOKpUgyoh6ybLuyKweHKgp4/jy/th8Phxu16+Hn6Or7fjQJ8G78fz8XAdb/I00PNAT2+X6+HL9fL9/Dr9fn+pyPr07fKjfuHXxEMgV0kef08vKAJPbz5P+NN4vsNHqH/d4xMk7OMdQU6KEOQTsU/wDkLUhAzO9wnkAIMmFAjcJwQPPmuC+GCYFMNs8ULwgIZJKQHyHpW4gNMm+Qyh9AnFAZEiiNDBOKEUYB04BLTxWSeGAxdsfNEaAZOJL1pTJ6loeSwEfYBjiEYQHC4eLqLGzSN0FIjAJZvQpB6aiVFV0olRq8HI1Rq2RtY8R75LwJZQ7EAnHWiphmL7EBunPURb1tDImoBsWZsWINWQN05oCAjFlrUxqZaP0faq07reGNDGN6r62cQuXscZwdkec27wfz3qJp5uwzQ3wW5ma3/zPCgeLB0XAY08/V91emC7wzQNgBDSRotpfOatNCpN7dCWSVk31SA9yZaVtawyqzba8E6CDAZdnUmqc9foYTY793q45WQ2vTo+dRzESDZMWg/okubyeHAFuEuv7pahGaI0WdNE9hjdYgoDGaFeLUoFzY6xWsQEb/VtBE8t3pl4p4OQ2czt5WsLnuZy6uBR68N5bgk9vNaHCdCI8apdSB5a1b/Cx7LPnkjmerHyV0rftqfRU7LcWjpX8aI87w6P5YMM2bgn3zYW/228PPy7ZbyNp9N0Sbn/v72VyKvpRkPPfwA=);lineShape=1;fontSize=14;shadow=0;fontStyle=0;fillColor=#f5f5f5;fontColor=#333333;strokeColor=#666666;" vertex="1" parent="1">
                    <mxGeometry x="377.4380892221466" y="351.70139199474283" width="182.7313926465447" height="2.0513696567668376" as="geometry"/>
                </mxCell>
                <mxCell id="52" value="" style="shape=stencil(lVjbchoxDP0aXjXyXX5O0//ITEhhSiFD6O3vK5fxstayh8nbsujYlnR0pPUmPH3sXt63G88fl/Pp+/b3/vWy24QvG+/3x932vL/o0yY8b8LT2+m8/XY+/Ty+Xn+/vzTL9vTj9Kut8OeKE8rcQJ7/Xl84SuX/i69X88P+ODNPlNxgLuTCurmnUgZzXT57ZO/SYB90BYHr58E+ZmJet49U/WCfmbxbt6+Uw2BfQl/hrr0rFMcNJJHPwAGhMEaoBkrIA0d+3KEWyglkLFI0Owgx8CEXcmNQa6Rc1wFFbJZFWQGiqn/nOIa19j3vp2EK4pS3SgHw4uZiB6RKFYRVg2iYl7QQ0JEisaFehD5I7YU1cVsTB3yQ2Kk5K4YYYR7CGFZlFyrmouUzRsln8oBLOZOMUVJBYEQ+zasRgEgCyJeExFkAUgAFxGoBSGIU4IMFIC4pgBc+MMh0AxgfQg/0KkAsICAVFlsPCmAMSMZpTwK41PKQLaCAAtJMG11SQEZH0nqQxQ6YS7IAVOCDartb5AGpfWsG0QIS3sEnCxDApXYkA4g9bmtO1wVbUX9QgNHWVkDA6Za4RQEJAsidIz0ApGWJgoaigMAWEDG9baZjF57VijNsDY/qgReZjtgHVy0A9YcmZIsSRS1LASVZQAHDWBNjtoCMjvRZgI4OfiFkDtBbx6lk8hBxj6ud/bOWhURA569s2q6DLas660PIXanWhpNqJoHQp8D7gGqpobNGAEdyzH2qnc2tAbCvalDGLQrDuFa244xwr9q1RIiZdCtUAeWGGTb0kGiHNriOBTGLw/3ZmG1L0VAj/fals3MCpN6K72cidS2dvM4wEdNsPuUhwpFs6sqzRCcQVbZq3z6AwHkWRNKZEg2hur4RVgf7lTLf+As/fzLFMWGM9cV+jnGnyIq5WHOPtMXOedzlb8U82NXRZ1WxkcRcLiTVmgOJ0G4T7dnRxwiFbMwDOLv0KrqZo7ISS3qGI7z0wfJ2BYFdzdWY47N/6oLjobk+3O5S3vaHw/UqZv6/vXvRV9d7m/D8Dw==);lineShape=1;fontSize=14;shadow=0;fontStyle=0;fillColor=#f5f5f5;fontColor=#333333;strokeColor=#666666;" vertex="1" parent="1">
                    <mxGeometry x="392.322305046921" y="398.434949110607" width="48.747256761389735" height="50.662401690543675" as="geometry"/>
                </mxCell>
                <mxCell id="53" value="" style="shape=stencil(rVfLbhsxDPwaXwnqSfGcpv8RIE5t1I0Dx+nj70t1se5Szo4boLf1mrMSyZkRtUl3r7uHl+0m8uv5dPy6/bF/PO826dMmxv3zbnvan+1pk+436e7peNp+OR3fnh+n3y8PPbI/fTt+71/4OeGYYumgyL+mF1UoxT9vPk/xh/3zIj5SqC6+BAphPb6SZhefMtW6Hh8Cid9QzNQyADQq7AAhU1aQgRAHnwIp2FGyFHy81Qx8PwvVMZ55Pb40ys23gEIDFW3Uok+4EIMNiZCqL2mhIOuAVkh8BsnegB5opOp7kJUSyFmFwkA7ploAQEda1EIZ5GCAljygUgJlNYD6HKzQkjDAS0EiRUCkDvB9kDrX7X1q84U5M6IFXFdbwnPJetlwmdSXqV0Kt1pXcQBrvuCsxWetmdINAI+AjAHVC0ITMaKrUvFkUpM0rlLxgmiVMq7SoGlrnAKbvAaYaiPu9LAlY59gfhffuKoUcA7VW7cpqOIcxPfBNFpwDo1HwI0qtcEqZf7EKr19DsKkN/Qw9AGb6zsaFb3pG14QzQQBlugAT9fWoG/0Mg2SM/aBQ70DPJlMQYq3JN42TKPlvwLshPBkMmOC/I5Uhs41aBvmjNVXqeaZLavnqF+hmDGBsvaT2pc1G+BDo4AdvAXQtc8avkpRoeSuh5moMOk+LcVxSw0k3eexq6Qr0EOf+LwxlQL1UGcFL1xD4Mg6jLgtQh9jSt4zujwAkS5nx2UeYzzx8ezsiwXQxMcUhg0JZLat7llkWlPQAZ5Py4VdoHGPxwHa/Ijh/scpJs/j3z9+n+FZaPHeW2yuynj/vmGSKMDvD1ZkhwiaYHju5mKSRLL/6B3sdrw9/L3wPe0Ph+m+uPx/vCDaq+lyme5/Aw==);lineShape=1;fontSize=14;shadow=0;fontStyle=0;fillColor=#f5f5f5;fontColor=#333333;strokeColor=#666666;" vertex="1" parent="1">
                    <mxGeometry x="361.4342946435704" y="472.1272746444956" width="192.36254652878665" height="3.4366353129983054" as="geometry"/>
                </mxCell>
                <mxCell id="54" value="" style="shape=stencil(7VjLUhsxEPwaX6c0Gj3PhPwHVZjgCgHKkNffZxRHizXy9ha3HLiZpXt33tPSTq5e7m+e9zvvXl6PT1/3Pw+3r/c7+bTz/vB4vz8eXvXXTq53cnX3dNx/OT59f7w9/f1805Dt17enH+0Nv068Win5xvLu9+kJUw1/H3w+4R8Oj+d4IScDPlPM6/iSqObx/Z5SWSfkSuxGQqEKCKlSKQPBJ2JAiJXy6LIIVb9OCJVcGAiBKYMgSaE0BklfwXWd4Es3oBNipIwIjmQ0KTF54AMLyfiFFPuTy4kj4RFfiBMIUk/SUheOXAQeUKkjnknA+zXioz3Z97yv4IOxRysXBaiH7xwPMuCoJov/V7greGv/0kkreGv/ErEVvJ/wGdrDYvEB5MtNfe+JQeMrfmxjzS/K1/x+pgjx7C1eoL8+WTyqT42/wTsqsJ5DnvAgv9GOiOYvmCm8fP68gIDDnPuMWgiRGHmgI8eYVCBBAvnR56I+AJOC77tlIcRehpeDpFNrdLpUuJ6SUBx9qAHOds2SH02qBZqUp8ZUggeNqYQULQFlWgl5IqBSaoSxVnWro8Q1k4oloOZXgg1r7fNsjSDOEioojbYtwkQAYdW1n/M7CZEtAU0kJfhqCQl/gScfAig+JbjJB94gGJO0NEBY06I7zosPJE4JMpc3mPNKSGwJGz6U6QtoEmtpcJoIuOPCZJLHDZScJWz0gxmVSsgbLTpl2m0MAW8JstGic7Vik2ymNTPYJJ6GQMWlUcbEsXNwZ7UenZyowIn3E7y1qaYe6csryFvhVlWKgrGhS85I85Kh8tTTRxp9KEIBJEIXtWmI4qA2VyngjXbIXQ6tiY1g1FuEx4s4qSuBafhQ8x9q/v9W827EJyyQglWReloWNHwpmvcn2PLsJ4L0nXWZUK1ii8uTtSsI43IMUAhLtjswZKhrQ7FFGhxssljs0hTf++LycC9dYy5XQYEiWprF6ikdlQJ80PNKHRufGe7xyvbIE2HjN+ExWqSlDvSa4pPFOxAixRsHFI/eX23S8AZvKiVZPMiA4qPFo1XWzh3B4FGjNU2TDR4VaZMP1h607c8UzdsFKiyIai/K8KRreFNxWw5kU9L9dLiGf98F8CZef7zdNt8dHh5Ol9Xn/7e30/rodLMt138A);lineShape=1;fontSize=14;shadow=0;fontStyle=0;fillColor=#f5f5f5;fontColor=#333333;strokeColor=#666666;" vertex="1" parent="1">
                    <mxGeometry x="573.5856683882669" y="252.43584439736162" width="59.97992966701213" height="52.332402414518356" as="geometry"/>
                </mxCell>
                <mxCell id="55" value="" style="shape=stencil(lVfZbttADPwavRLLPbnPafofAeLURt04cJwef1+qghyTxo7QN1nmiNdwuDulh/f909tuiuH9cj593/06PF/2U/oyxXh43e/Oh4s+TelxSg8vp/Pu2/n08fq8/H57mi3npx+nn/MXfi+4QCXOoBj+LC+kUuF/b74u9sfD6419oSrGvnaqaWzPCugGUApJGwNipmgjyo0aAKRMxYaUOgUQUq4UiwHEThxBzkKpGQB3Kn0M0Jo064GZOgA0BbiyEoexvTQSa88kIIOeqCVjHyiA7/dO3WasgFogQFxN48qUEaA6D9p4UCIFZJuCcnEDwM0DKkpaqLMHMGCeAtwwaA4BVUmoBF+lVCEgB9+HiMqqVHXEEAqIGeohW0DBVBI/bpzWuo0AzSoAR8q4ccGFxNSQh04peMAGW0vxISWUdF8l6CbpmvEARV9WlDSH60ReEW0rie7qenU6BNyxD9JVs7aNiIkEN6LcTRCSYgXE6gEF89slrYCEyCReinVGIfvEc0Or1HFI2bZaxRiK6/06kVX+hx5sWVmXNCrrfwOS3z/zjAKALiC3IDivrRxtOL+xtNBAXHWHiqMGbly5E9cUiQG99RyQLJey6gzIQU8abosWXbug0xqx81AD3IoqEt16qEp4oDN6lLETKhEuRSa2xJhHFnQheBn7VJ2BfXOyF/BJI6y8vHFQgcSEdV9e7YUEEFXXpUu4rSEO7NmSqCtLQAPCqm9X+ww5dKfyOnoBFjS4BvA62yN7yzjpW/Wx8YjAwdf6W3VUJUi4vzb+jfvFtr0+fF5mXg7H43IXuv3fX3701XJxSo9/AQ==);lineShape=1;fontSize=14;shadow=0;fontStyle=0;fillColor=#f5f5f5;fontColor=#333333;strokeColor=#666666;" vertex="1" parent="1">
                    <mxGeometry x="598.4339783528967" y="284.4815981128969" width="69.28573784171499" height="8.080762198429284" as="geometry"/>
                </mxCell>
                <mxCell id="56" value="" style="shape=stencil(lZfZctswDEW/Rq8YkOD6nKb/kZk4taaunXGcLn9fqCplE5ZumzdZPiCJ5QLUIA9v+6fX3eD57XI+fd39GJ8v+0E+Dd6Px/3uPF70aZDHQR5eTufdl/Pp/fg8/359msjp6dvp+7TCz9mOKchk5PnX/KIKSf3z5vPMH8bjDR8o5Y4vnjJv80434M4gC3EEBolC6AxSpJi3DXyk1LsQIxWwg2TysTMIkViAz7Wt1wwkkAdHSkIudQZeqKRtg8JUewONWwE71EyxPxKTK4Av5CzPIG3K52B4j/jaAnLlM8iB8qn2DlNykK/9eTwl4K/jxb8lZ7AodIPSOxBxgKpNQCLGDnA1fEYJLhT7qs44AZmqtzzyN5MYmVEFGqiJiuWRBJQPxcRT8Pq+j49KDMUzkdj8Ig1P57EF9zdgm/72ilSJIoFpPC0P/c22oLVg0XnKveAZ9GmtN+cMH9F5tJ5NB2oB/k+9eBKQr1VBBtASJ8X3Agitz292FCtgNJimjtU7nFqENzuiFRhMwAd5naO+F4zLlIHDKbSxuASU25arBtHZURxcK5L1QVlsjeoSBYjA302l5FtW1qui2NmdfdPRuoGqvHc6a6GDNKvMzH0lw7KQ1pWX+1BpUdvgQ5/lq/DWQ0S1Wh6VtafIlkd92tn1b4S3YRDuDlTgBiyWD4Bnm2ENKFqfWxu54dF9kVv6Fz63q84Gb9qQdnp0c+I7fyM5oGM9jykgHWQB8R+7gP+b14frbf9lPBzmj4Xb/+3Xgb6avyzk8Tc=);lineShape=1;fontSize=14;shadow=0;fontStyle=0;fillColor=#f5f5f5;fontColor=#333333;strokeColor=#666666;" vertex="1" parent="1">
                    <mxGeometry x="678.4267876493341" y="236.592972311106" width="27.25477306808034" height="13.980851653858508" as="geometry"/>
                </mxCell>
                <mxCell id="57" value="" style="shape=stencil(nVfLctswDPwaXTEgwec5Tf8jM3FqT10747ivvy80KlMRtNdOb7KMFYDFAgQneXjbPr1uJs9v59Px6+bn7vm8neTT5P3usN2cdmd9muRxkoeX42nz5XT8fnhefr8+zZbz07fjj/kLvxacjyRhRnn+vbxx5JYXnxf7/e7Q26fc2QdKDO1d7L/PFB0ABMqpBySKyEOm5DuA+vQAIEKhD0kSeZBz8I2S95wLZeAheuKepOSI43VA8hT7HLJvdbkIyI5Sz1LRIOt1QIlU+6SrkIAcsnLSe6iFEvCQtQ7OAiSBkLhxsgJwAQCNuGepZioo6dy+twaApCsPLClAACA0Ma8AFeSgf0uxSXvQD7WSHwB/xXIR4Fh5ZYsoGboIptTqFGWdKYsFRKBvpakWC4CFcK3nV4AKPGipTUOseLimphIHFyBr1WsYkshA4NoRdUgioBZKgzgqOeQhDQLXUgM1aUgsFhCQBw1gAKCQ5jlkxKQ0gFGmk6mwBRQg8FIpjV2NWkgGWjUk4KEmO47npFFD6HmQB1qRhzpIo0AtzVIbpYHnxscAKRCbwglFdCxWO/C19mjgBybpWcoejjKvOfQHr56jaFg6HUO1A+hJXUAO8zLSs6S7gIA5E0j6dpiXDTBb9UDpObqxzWg8/fdvrEvDrMfrGH9s2+O25jRzpgIK7GwXcFPI5UXMzlNufXp5q7JiYLzxULCxMyiUc7ay+PhwwVJ5wz43ndwZT21T8750/fv+dx+byr5RJi6WCqva+JEW/uNiccNeH/7dYl52+/1yCVr/b289+mq5McnjHw==);lineShape=1;fontSize=14;shadow=0;fontStyle=0;fillColor=#f5f5f5;fontColor=#333333;strokeColor=#666666;" vertex="1" parent="1">
                    <mxGeometry x="700.4121010975487" y="241.43169478116295" width="4.579639396739822" height="49.908439954293954" as="geometry"/>
                </mxCell>
                <mxCell id="58" value="" style="shape=stencil(7VrLbhw3EPyavRLNZ5Nn2/kPAZajRRTJkOUk/ns3s+BoWJythY4GfFuNWNNs9qu6Oaf44dvD3df7U5Bvry/Pf93/e/78+nCKH08hnJ8e7l/Or/brFD+d4ocvzy/3f748f3/6fPn7611f2X/9/fxPf8N/F1xwKXRQkB+XB95J+f/BH5flj+enaXnVaXlxoV1fHl2bl/vivF5fn/D1IbtE1m9vG+ujukDWq9M2rc/iUr6+vrlcZnVNo3B9vfcuxAmgxZVIAHags4SqLhID+IQqt+yESUgu1BlQnWc6JJczSshcQgMJ4pQB7H0yK51dYUqblwHA81NS52dDax3HcOzX4mSWoEpPySIBtmQSiicAs0NAHVoiAHNucI3ihG2pDkfY2SEKATRX0wyILpEtxeDirENLTojScXvfBvBOieGi+dKsg8UDzTDmGrO3VnGF6WB2nbekZkqmg7o6SyhhpLVjQMUQzYkabpWQMpdQXJtdIzYnTOns6nysZhllEpZMHC21MQlxJNINYEmApFYDxIKAxFzjCOA5IM1Kd4fngKwIyMz5tkPcAVheipsj7ACeSUguegQIN1xZJLD6sEZcBzAdMta4rgMHpLacEttSdiqLHZgvZQygbmkW01aB5lOy1NZuAGY7WAwmDqiz0kloFe0xPUtIacg8BjQsWUlpEkiWeufMl6xikKJoWUgUJTBvtfc1SGTRVZL5chh0akfgmB2y0an5WC0vNXKsRZAJGAlkShvDSzOb6SyWOF8pri6AyrZUnUJMF6dsSw1j2hKPkC2pDN/c7BBoBVKPjCzHQVeOARETWUk0pjVhPGjiEnSouBX2MBLPMaAN/rWjDpV4q73PA2/1tHuoaRC2HYAVFNsAFBRjZIwkdsIG9KfSLRlhKwCwJwygix10OPwxoC58SanhDJAUAcxbDVCXpqmxLbWFe/PMZ4AcFx0IMzaArqdELG0AyHwGYDHtZe04tpO+KiIgIBH/7kokBFSudZoZlnJaaQDvEeC5M+GWGjdEdbEuElgEVaxZpjSrKD0gllNiLbsBIH333pLZYQUorVl9SwEBjId2pZcYZZ1fP9bFXYVLQB0sRrnzSV0kMDs0ZOu9A2enZO69nBIj3z2AFjuwXHkco6yOdhEFAZGnsro4k/IYfScgYw3qZYwdk8eGwKoSy99WooAbt0DZt20gz9m18Qa5t/QZJRRyrN2wMDDaMs81etIAEGj+1m0DOz7DSrtxMoVZYqJ5xlgfjhH4dMZ4pSysj1XqsgXYjldGEtRlm/buyDSlumnMAHYDXZbJSsAZVqhj5nTcEFQkQJ0bE/fOCSeu1kixPJMFyUPi81D7NyidGp0yW2MGSpvMeGOGBY1Z5Q3yMhWwTXo+ncEOQmg8WP8MXVBvkEle+j0wGoDfA6NfYGBU8J7sFkAHPdrnVqZDw240VjqitYD0S0xXNs4RnGz0uTQb5wgarkR6KWI6QNm1MpmY0ltDspVdT6czdqx51qFW7t55uZyKI0KuJgHo2Qu/FJHlUqTQRGY1s8x5yegPo3BWM2Ho1QcVxHAhIluvSiMu+EGEd2MEVoF8w1tF68tYuvfLVMAszZT2S19WM03GBoCSZbyVdX5+mTAZV2Y3cutV6q5DOEYEbMxMRKQtBzY1VenVaFva3UKHXjoI3o6Fso4941DNqAkzW1xupnSMFo89D+lbl8gOCEPB8zn8Qt4K3c7S8Hl6bSzIuIU2xTLS7dtyJel0Sb9CJ3WC7EXo6FCwgRGa2wUHXMI/O8Br2RuBgmYSOnjy2AQLZbNLFArtKcJ67ozvB6SZMoaHV5a/84ubG8vtx9vHPV/Oj4+Xb4P2/8ePgezR5UOi+Okn);lineShape=1;fontSize=14;shadow=0;fontStyle=0;fillColor=#f5f5f5;fontColor=#333333;strokeColor=#666666;" vertex="1" parent="1">
                    <mxGeometry x="708.4362899280413" y="245.43422386205577" width="46.63625825699705" height="48.390589573250054" as="geometry"/>
                </mxCell>
                <mxCell id="59" value="" style="shape=stencil(rVjZbhsxDPwavxISdT+n6X8EiNMYTePAca+/L1VD2yW1HrdA35wNZ0VSMzx2F+7enx/e9jt27+fT8fP+++Hx/LwLH3bMh9fn/elwll+7cL8Ld0/H0/7T6fj19fHy99tDt+y/vhy/9Tf8uOAatdJB7H5eHsRGyf1+8vFi/3J4Xdn7SD5rQKWWAKBQqBqQqdXrAPaUzQmePHCJA1WnACFT//MqIJFnDXDEHgKKzpKcyREDmgL4TK4AQKSmXWoUQVblfGfujQoI2VcqQYdMDPwRd71+f6IIAvZMWfvv3XjDJqCR06wQniQQsNyoTigX8oBFkg5NolBhgiJl/f7kqABKSH60febh4aZ9pZyUfWFqGSbURwWoTDHAGzMMqg0Ks8tGu9QiFGbgkZEFIHcGXIoCcBaAkpSYqmZFS+SA9LPIwMjGUwAnlDSyvmRpydv2vYkOddDVwaDF46aZUQJFkNaWh7JWAA8uTpLotJY7l5BLZVB/BagIUG3QZbmZbYDIOdkYHKC3ANIECCjoZqkhgIIqknODOgsi4pIkRzQLyIB9PYhiAUhBPU2afcJHRoA6NL8CRJTXYuu8ABKoY51MaToBCKLTdQIwylLeuIeK7iGNi10B4g3AdILDGp3JlFGW8uiWKwAjumaqk+QaKExyD7FaQEUn1NH//h5Q5xaE2RrdFDSQXBfQBLghIFsr4yjoVwHJAqAe2gY16n8FSKM2DYIhl0q1RUB6DJrFcrIjd8OlL0UKugj0Rg0AkadRoOFRwNsWtCq329OGo6xF3SWCFg0eaV+1dnRCsYqrYZS2KxMfmx4nHQhNZHaCk4kvAa46W1hvTJRTu5KJNYKK4W2Plpk0w3jdtJJkQLsypLvkE/dbT03b43LU533tzw0Cye04Yx/QGlks4QIckmQjMUNSgwuGrIym2PUVDyRo1kwPCZ9gPJInqJz2EHRLCGWsWduAOjxetkiGW1jfAjWp+zIPSCokYLPM463Ep7G6L7JhKBvZM83ekwJs/gLgMAFQ47SjqnjUgHDq5BCPe7libz6QiD0a2YpdYcQezbVlWm39+Jxxxd5MtWKPRnN5v8mngyuVFOpo7VG81RZqsfdAaNWuqUK5isYWCpN9RkPIP34yu20vP/58n3s6vLxcPu+t/2+/58mjy7fAcP8L);lineShape=1;fontSize=14;shadow=0;fontStyle=0;fillColor=#f5f5f5;fontColor=#333333;strokeColor=#666666;" vertex="1" parent="1">
                    <mxGeometry x="751.5757063503743" y="246.8869905807128" width="23.21015466748827" height="37.28139520845468" as="geometry"/>
                </mxCell>
                <mxCell id="60" value="" style="shape=stencil(7VnLchQxDPyavar8tnyG8B+pYiFbhIRKwuvv6WHjyVje6RRHCm6biXtsyVKrpTnEN48311+Oh+Aenx7uPx2/n94/3Rzi20MIp7ub48PpCb8O8eoQ33y4fzh+fLj/evf+/PeX62Xl8uvz/bflDT/OOB+khgUV3M/nJ1L97wfvzutvT3fb9fh3GtarVEfWOynm/Uly2Ac0iWVYH4K4vL++ShnPE70kcqAiPg7rE95f9tdnSTqsz7E/2Xm/OX/J4sh5VEoe1tcsldiLC8jmArL4RgC5+68DWpBYCaD1A6+AQk2Gza2OAC8a9wERQVGtDc9WXQZEyeORapVAvBrhk9FLpUomXorJ5kHGDgwQ7MWlIkpsQGSnNkZqlcgA2QKW5CBGI3X9eKQQxbNkrpJGAO6+sVhK1mgAmJcAiOM9eJXGjpQkeAtIfIdQLcCx8Ab/jAwANxQS3gC0bAGRUBgybt7BkXzwRYIhScQS2wEZpxZAabtKnQCFuVUll2kH5iUEwrRDI8QKgDbrpUCMDq7T1gaQyQ5hqj14oiQ0UGqyybjSU2qP+dJ4pLhmyGXW8NLGfEipk+dlgIqOwZdzf3IRABZyo9EFN01YA/XMJBAqkLIK6iwvaRBlJbGKN3TPL65O3KpgDVZEwXyj0ZpoAmmx96COknGLoqaua4+uy4DUq/IG4AkJAKBjjYPfWE63bKUPAIkdCYHgLSCQi2u1R84GwJivqWW+pewywFo+NgAloQFAndxKydg5K2eAYOoEW+jIZGUVpXsAU0YBoDtAM4/BVF0ve3sXodUCEjtSsTYAwBQWgsmw8bID4RkAnLcApkMR3zFOXmJGR2lhugfm1thzfnvThDZwJCONAWByBoA83sMSrtytcdah7EjFltEl5XhozACa1DBxpg2eD65YQOWAMnGl5wlkGoiFXF8BmB0aD76LAOalYPs4FDmmTlBRzE2jyLGcrq0z49o1OSqNq+8n3rZZrFAH61ZFAhGj81RRdFXXl8WG2rpb18J6GeD6tGATS0ydoPOLIy9lLo0hyYycSZkDnFW6aB5ZGfVTi489Gd3/NV0Tb4L+d03/Rtc0MR+sYrOWZeQ1Bt8ysmOjE2e1dIDfWNeUbU8T+U2jazJaA20R06HgpWzaLM7eyds54qIEmA1TUayVDvriNFVTbgOo0o87QBBlNrerViQ2pQIreDsM3ajrXSbzdgvHBFOXhBsbWCwV22Vp5g24BDNuLXRatJbkzTjXk0uYmo1lXEwcNI0oEFgsjEJn6c24m50n2rFm4JohTfSCSkFCItvxhFJ5W6zA8K8sr4a7qLHVOsf1PmtnuZmk855q0jqOC0LbqDoaaFCD3i7n31VMIDteLJ0tx65PyHc/M1SzPrLPEivlv6xn4xGsT8Wsb/z9xVAPVxN/+l3r1fX48fIR7cPp9vb8DW77f/vRDY/OH+zi1S8=);lineShape=1;fontSize=14;shadow=0;fontStyle=0;fillColor=#f5f5f5;fontColor=#333333;strokeColor=#666666;" vertex="1" parent="1">
                    <mxGeometry x="778.2023798953294" y="239.43479703596392" width="18.574437046401272" height="35.22514634329559" as="geometry"/>
                </mxCell>
                <mxCell id="61" value="" style="shape=stencil(lVjZctswDPwav2II3nxO2//ITJzG0zTOOOn1913VI0UEpW3yZktYCjcWPISbl4fb5+PBu5fXy/nb8dfp7vXhED4dvD89PRwvp1f8OoTPh3Bzf74cv17OP57urv+fbyfJ6df388/phN9XnKqUOKG8+3N9kpxo/ffkyxXweHpaAapk7eWzxLwvn6SVTj57acrkXa9PLuLTvnyU7Dv54sWHD5xfcH7bl8+ivXxVqcQ/RZLr5ZN4It+sP2uWROS1zu5YAHABMRgect5a4AsBIMS1dxFC7PYBQaUZnzoJRKUQJOc+yEG8J4A4K7BkXaJewhe0T7tYpDCVlqyfAaFJZV5CYoQe4KUQL3m1mTrVBgFokdoDtEkkqarR1poGqhJex96GJfTb8rCwd1Kcs3fvfOMj1A7TJ0npLXbimEudjfLyYFs+SOjTyEsk+k8x7mutiJJehyRyrbc3So0EkMX1DkVOJKJRDHPzWbKuzkdstzuErHdRUt7v1GZdRgMhRk+13newkmjWlSqpVwktMpHqr826tSXJJM54Xfu4tSqFGN3yrMAKkInRrdhMapWWAl7rCCBG43WNgw3sC2gOA6AyG9rwhUYjrW4pxxWCDrc2d7gVIJHcmF4nC2DJBBtbswDWtwHwxQIaAxSJfcmt/LCXTXnQqbFIYBDUwQhCegCwsW60cwOg3gIiB7ghEIyHAeCDBTgycaca7knAW8rvudVXC6C5UWYF3ltzmLgjgFd1HquaJROcOBrNC6IMKjXWytpGLnn+hZYtILLAtY30zixwTXSsURaHjwJAgasBYLKSwJU4D8HVDGJxyEOJYso1Ug+p2BLFHA1stFcJZhNTOhZBUEMfOHAB9gXw9NjXtF8I1zb/SRIMA13Wpz2O6w0XoJsDKK7RSGkLgLz250dJbGKB9JtliS9XzQ4HUNjElitv++p0BCnPN86/igHrGOCUxkXYMxhFxK5kRigSpTASipW1rwXsSmyYhIVXrLYx1iYB0GHfo5ma7cwFy6S1EIbEy9RoJEIwJFQpW0Kk3bDY09wb4lALJXDDugd56lW7XEEhdhOjc56tLGbEx81ptropYVv9QA6nmxhS/MPekAvd3tTWfsZuw7Yx6/+U6b1HlmDKYBmlO/LmfMjTEWKrJvKxOawYkXPnYuk85FnzrbaxQD6wMW43mEmeTXF7s/if8xUJMSjE1nMAzDI8eYgBdMOlmQxxAPIAYERkuk4dbGB07cP3r+8A4Mfbde/96fHxelu8fm+vh/HoerUcPv8F);lineShape=1;fontSize=14;shadow=0;fontStyle=0;fillColor=#f5f5f5;fontColor=#333333;strokeColor=#666666;" vertex="1" parent="1">
                    <mxGeometry x="794.9031620974181" y="194.81022452671687" width="23.133500889161496" height="82.25437760836598" as="geometry"/>
                </mxCell>
                <mxCell id="62" value="" style="shape=stencil(lZjZctswDEW/Rq8YkgC35zT9j8zEqT117Yzjbn9fsKpYE4quJ2+2xCMQywUhTfzwtn963U3BvV0v56+7n4fn637iT1MIh9N+dzlc9dfEjxM/vJwvuy+X8/fT8/z/9amtbL++nX+0J/yaOR+pSqOC+z1fkUQ5/b3yeQaOh9Mt4In9AMRA2W8DhdxoIAm5sr0+UXTD+hwo8Pb6SGV8fnEUwfpMNYzr9QpymCnUAajqgNsGgl/i0YFMPmwDzOTyCCRoQVPEY4xKJQY+JGedzpoWsKUsxKPTiUlA1kqkPPogmaJsAzVQHQHWPEcA6JZGwFdYGNVRSCPgyIOwFl5i0n2gDHakQSrjei0VEFQtfM/m+QJCJL3OugOZEpCaMLFYoFYABIpjqfpCAW3JUywWYOCzOEppZQGJoVo9e6xPBYK3QERAocIW+CfALSCbLSXYYhSoyQJI0OqDxBGIUD0aVl8sEFDL8ORWFhyqJb9UTgfkXi2Vai145ANTWm1JgN5UDzbTcbG5BUi1eRAUJVma3A1QsUS9aUoZ+8AUqwUKaKwtrKYJlMXmZuJWAKNMu1W1qkSRhd5GbwCHJcorp9HM0AQULID6UpOo0XS6Z6FEC6CwtjZjohQpgeL7MJDCcrsD0OecbHU72GR0zvFjG1ODoBPXaPXZO+37g5Jzq/OqJ/59C4VkzFobhRDgrQXRxAP1ZN3AKOgU4eCjt2XMmj6iIn1Wqx7dZEFiEFsXtZIHLUODaA9pdyfTJKN6WirBlvqA3cfJAk+fVZ515EZt1S1TS4+phghoLSxFcDN8RlB56t1Y2NHDjqdzoDEgcRnytwBzLmjjr8BjfUuyo6QsjX8LSCsLjKoikHgLoMFK32PMUdUOL7QlpsorC+hNSWweBA+4bWaJFkBdWwHT5jVx6ORpc1e0gGAgOAugGaMdG6Oc29sZdvqDb9z3Af3x/wX/5XA8zt8Hbu/bDwJ6af6YwI9/AA==);lineShape=1;fontSize=14;shadow=0;fontStyle=0;fillColor=#f5f5f5;fontColor=#333333;strokeColor=#666666;" vertex="1" parent="1">
                    <mxGeometry x="654.6913717278262" y="356.8500625781976" width="17.73750138414789" height="30.743947301371918" as="geometry"/>
                </mxCell>
                <mxCell id="63" value="" style="shape=stencil(lVjJctswDP0aXTEkwQ3nNP2PzMSpPXXtjON0+ftClWWTkPw8vckyHrE9LOLATx/bl/fNENzH+XT8vvm1ez1vB/4yhLA7bDen3VmfBn4e+OnteNp8Ox0/D6/T7/eXUXJ8+nH8OZ7we8I5EjeCgvszvZBKpf5783WS3+8OjXwmib18IY735T2TCz2AKQoACIVeQ62UgYZQqKQe4KmE+wAu5GsHKIEk3QfETLn3IQeqAJAipT6qKcxhWI+qsyZFTx44nZlK7gDsiBkAEuXSAYKHicuZfO+DjxQ8BITeB2USVmDyFqkAYuRFnjWmgKnFk+sdcBRB0ora44385YBV+RrJJyOf8315cZR6eQ9ZJ4lqbz9TBv5q4UpPiUQCGOGdswGqc3HfU1B6CikjEtCggEulN4DLEeuAQnUBEMAJBTjuAQnWjQZVxAIC8iHaBvkIwHNraE1CvAg2bwpAxFMAs41SxQDTg8fEIeopIFsAYw0xWYBDTrMtHh0UFQHiXOwNoKA8pBUNGZEv28EzAjD5wkID6mBaDzasTIJMqpQW9eCxhlItIOKazgtqQKcr+QX5BIy2237Q1gPiUiZeFBAaPJrpsCiggJy+BrE1CTnNc8m3JYprOnkbpYoyrRW3yDTaekbAQgOj8fDfAC1Rs7nhvHmqZkuC1KtCsR8n6jFoSjVR7B1g2Iiro9oTL8A+XNRfb+QR7cr1uJv9FRSC7iPFjtuC9hE/D9d2AcMKrAOeIshYltnBZomMD5bIPqS6pqK5kGTub80ijEpT/zZbp266HpgUg42q5jGASmO207PiPVLTauazMtehxaraxU1LCW0x3tuwapdl9H1hN20ROHiuLb2RF5C2aFuFCJxTbO1pdsv1mFpqjwpQhGxrGeXRV6f9nFJ59MHm5s7TBhSk2M0Ua+QT4JBGY3F+BL1lsZmLwLJxdiirvAMJc3Nnbggn0J6VWwJ4/qNbBX24XUm87fb76Uaj/d9eYeir6fqDn/8C);lineShape=1;fontSize=14;shadow=0;fontStyle=0;fillColor=#f5f5f5;fontColor=#333333;strokeColor=#666666;" vertex="1" parent="1">
                    <mxGeometry x="694.4266518641216" y="301.611730965329" width="18.550925738853948" height="79.96162064022667" as="geometry"/>
                </mxCell>
                <mxCell id="64" value="" style="shape=stencil(lVfLbttADPwaXQnum3tO0/8IEKcW6tqB477+vlQFuSIFjdGbLHG8JGc4lIb09HF8eT8MkT9u18vXw8/x9XYc0qchxvF8PFzHm14N6XlIT2+X6+HL9fL9/Dr/fn+ZIqerb5cf0z/8mnGBcppAkX/PN6reyX/vfJ7jT+N5Hc+UggHkSLECgFCqBpACFdkHRKHQDCDiE1Kn6dkKEAr1sA8ogapYAJMAQM0UbUqVYtqPb4WSy4ik7MdLXh4v8UzM+/FdqHVLQiIGBSjAtUgBHdDcG1XLmtKMSlBAsCUoLQJY65Wa00Wh2CGgWKnGThUVXSlbmmOijAHVajs0SqjouujsDojEDXYp2S6p2BHRjcQSXUjA7CjPubr4GkF8X2SzxGuCKP/uW6qT08EkKEC2swkAge/Sv7OGh0eP6LZH2lRGTdKc7AlJhwGfkJ22Back1K1fTCaJ+iqLMFfz+WDcJHtARkS0jW8HYqxtsVQnVTse6GJ5mIweD3R2Rl8oP3AAW3ToS1W7HmNTCokanrdgAbpbsE02KyWtCf//Nh4UoIuhO6lmakBIunmybZGy1oAudLUlt0oCtGFdnuKEVCkAj9E9kG0N+hcFNFXH1+mi6PoCA62vGM1KtaqtgraGsLE95RkAol9uHa+eQM25HuONfu/56oAIppO9LlRZGZDAVFwBmSrIh/0LT+fF0nbi2eYvWHYbkxdtMY63DW0N2h1TsGPQInXYH7eXK3Z4puriy7Ijdvh1+dcI37/++7X8Ybxe/PsGeBtPp/kTYv3cfzPorfl7Iz3/AQ==);lineShape=1;fontSize=14;shadow=0;fontStyle=0;fillColor=#f5f5f5;fontColor=#333333;strokeColor=#666666;" vertex="1" parent="1">
                    <mxGeometry x="702.4358747493682" y="341.6608816558754" width="31.493185436128215" height="2.9047308590651255" as="geometry"/>
                </mxCell>
                <mxCell id="65" value="" style="shape=stencil(lVjLbhsxDPwaXwlRIvU4p+l/BIjTGE3jwEn6+Ptya2i7orAT5Lb2alYiORySOqSb18e7l+Mhhte3y/n78dfp/u3xkL4cYjw9Px4vpzd7OqTbQ7p5OF+O3y7n9+f76++Xu2Xl8vTj/HP5wu8rTplqXVAx/Ln+U4RC/vfP1yvg6fS8BVQqaQDkSq3uA3Ih0REQSNo+oCSKZQBoolwAoJGMNohS4X1AVYojIGVqsg9ogdIIiIVyBACh1AYAV8poh0xpdCszRbxDHXewL6D1gcLo1UQpAB9xj+pqMimKWvBEErjeeBRGgxtFsF6EsvNohoDExCPvzEOc9gEWoTjukCopclFn5crTSAFkQiIdPZSNpgpM9pQoRjqQmo0qD+trpgLOw8WHuFmiAcBscSvEKGiBSvaAhFgRqTqAEgNaZ1OrOAKYBATN1CXI6CVzA4hCXUmwAuyQiBbVy1FNXW/2AFE9oACj7cR1ZEY1NwC3GsBJqgESMjp3edsABHDPJLXpBEA2KCXxgAgU0l5X8V5qaAcTIPYARWVBvMrXlSx7AHFuNZEElcoAZQIwioN2n6wA7lm+B/BeYsqIrXmiN5Mioy3l87QD0FUDlNkGxKXaRWXjpYiMrp2bG0D+IKcnaiCZMUCaUlRRTpuoNA9AbZIBPJekJ+1e4HykjY4ocFb+ph0Ek08nmUk4gbzR8lEC5eC9BAMnXdy32oro/VmAtb/VFZQAdcmKuI5GWxUtIHDWzdbxSFYUkdFWRV3Z5WDdHDAiFp9BrUFh4klnrO4KCHXubzdVFOlS6J3LppepIOFW+za9EoPvWzUZv6+BGlhvBqfRgGUEAEGIUxuw9GcgBhJ9G8ACmyXNviLaiYBM5jZ36AHlTuzy0NdjErXopySGgtSqP7/CQrIh8WbmgVOViapLBBv9QOmxTHRD0hJG3IqVMfttBghIhaNXYSkUAPFK9pKnCqeGMqVOjrgl5t7Er7kW4HSrJttu0MiwnTSAigegwqBre7oBCNZInQAKyG2AeQfEPps0XByWI2GA63sMENFNCXudX9wKAmcAHclXFM4BBnCqZ4AEuLQA2AMCSKAF4NwqcERcbJjuk9Ck8fkLqI8B9vD/vuvh9PR0vS7bvvf3Y/bX9W4t3f4F);lineShape=1;fontSize=14;shadow=0;fontStyle=0;fillColor=#f5f5f5;fontColor=#333333;strokeColor=#666666;" vertex="1" parent="1">
                    <mxGeometry x="667.5596502457761" y="413.28372600328635" width="27.040283386191504" height="38.25145435991158" as="geometry"/>
                </mxCell>
                <mxCell id="66" value="" style="shape=stencil(lVfLbhsxDPyavRJ6UtI5Tf8jQJzaqGsHjtM2fx9uF1JXlHeM3GwtRxTJITWa/MPb/ul1Nznzdr2cf+7+HJ6v+8l/m5w7nPa7y+Eqvyb/OPmHl/Nl9+Nyfj89L/9fn2bL+dev8+95h78LzpBPM8iZj2UhMBnzb+X7Yn88nFb2kUJv7ws5YG8DWe4Btq7cBDj57DuA+IzAgzdkbQewpa7cBARDqfdgHXEAMTsKvQemELftOZAvvQMqZds+MeV+fwNrkDP53t6Rzdv2hSmGzl4S5EDNTPO/SmlJwEMmG/sqeyogpcUPvCsUwZky1xBbDSIxSFJKFHtAlrqDI3ELsWXJUQRlm8usiGdw4diR6ZlXJAgPAclogAPcZl+z2AABVk6CCGYAoCPJAVgfyaKgWZNJAAFMAB7pGqlgQFZByxYoaAGoOiScVtkvakAGdJ2DVkeSpr2T1qIBCaVVCuc1IKOg/RCDAFBDCPmGGBhlSeg9eLCog2xtsFVaGU1WqyerAAyqg6XQTwGhhgezUgBZxRAp454OQz/ASntyA70NAgR9wc0tioKWz3nwgACRUhpiwPT2g4eE0sqUeKjDnZ5WgIRnKxMnDYCzlckN9EbX6JcBsQzDOJNBLRqHUWlgpZOQr++HJHIMBC13YOnJN99i4Eg5aS6FDFu0NC21kgIRHEnIrMa9yJ8EqFGGMWNtTcOWdlAdJy0N6ibSgfuYPb4SmYpV+6M5GePQDDDgEKrcbAFHePv4UEnQUuqg4nNNSzVArrrgtkRsd82qyhnEbA3lnqnBVvm08dBQRA1NY27YR6PtkT5sKmdlj4RS0LJHBKtDNdC9L/YenF8u2zjYg9vZaYExnwcVoHpfxwvOY+o8X9lH0DTmxv4WNI0oZcWHBJtmeJKIvQFNY6ooXT1s0QPjqw/h+/by4/+r++VwPC6P9vV3/UqXpeWF7x8/AQ==);lineShape=1;fontSize=14;shadow=0;fontStyle=0;fillColor=#f5f5f5;fontColor=#333333;strokeColor=#666666;" vertex="1" parent="1">
                    <mxGeometry x="712.4224480945365" y="412.0950078503372" width="18.298618111674614" height="25.288237046745735" as="geometry"/>
                </mxCell>
                <mxCell id="67" value="" style="shape=stencil(lVdJchsxDHzNXFEkwQ1nx/mHqyxHqiiSS1a23weTCaMhqGmXb7OgSaLRWDjxw9v+6XU3Bfd2vZy/7n4enq/7iT9NIRxO+93lcNWniR8nfng5X3ZfLufvp+fl/fVptpyfvp1/zCv8WnDJUY4zKrjf/74Qh78fPi/2x8NpZR8dsXT2maRs27On4Dt7HyjFbYDuH0sPqBTrNkB/l9wBQqHoAYAphg7AlQQAhFLtKfIkedu+2PVzJue27XX3fv1SKSXgQKTYx6xWcojTQLk/kTDklANJv4Mk8uBIMTYGVzsE4HPSoCbrA9JFUQ6DZcmhqDGV3oecKAkARMrFAjzIBeWkGECkCpJBNFfSAABKEnUxD0cCtIo0pa2dRjvI4HQmD6ShABELEMSSWC3lQhnvkEz+qFiQ03WIQ22HvA8oA0BaWdsKnEkgBUBatYplC0AZp+KzdVXIIy0xJbZOZ5CiElqhXsUBlW4FWJYKBRTpMMg7Nxq2fIjGaU2pd1hiCwjI6TTQGrFac4vrOkVBXZq15IYdkJZUrd76wDgfYrUA1H/mjGMbhwwi7Z0byoY2MYZbWK8rlqsWpmQBFZXvjwKqa6T87yi+pchdQPZDkwtU0eyjLJomV2FjvzP83Ji+HwktjX3o5p4BxKHqM21UIEu+ld5VF0VqHYWR8PhGvvdYZyUHEjRZqXJpg8H983s7++gSHhxIx0PuPfYJjoe6numIFZZ6PbDRnXIMQhxrK3HNXjkGmRPFlmEsIZ3ozTys9iDCGqAsxp5B2iSd352xL+g83CbHGz9wMuRG380e9QS1r31vDjC+s32/Prcha8s+JWOfEZ+6XB/fSAGtH9pwc7MvQNAaL3sdgSPhR29479vrw+06+XI4Hpfb6Pq/vX7qp+Xqyo9/AA==);lineShape=1;fontSize=14;shadow=0;fontStyle=0;fillColor=#f5f5f5;fontColor=#333333;strokeColor=#666666;" vertex="1" parent="1">
                    <mxGeometry x="735.9477280966107" y="404.41424332925044" width="14.186058424280873" height="21.735280381431494" as="geometry"/>
                </mxCell>
                <mxCell id="68" value="" style="shape=stencil(lVhbctswDDyNfzEkQfDxnbb3yEycxtM0zjjp6/aF6lIhQWkz+ZNlrPBcAOSBb14ebp+Ph+BeXi/nb8dfp7vXhwN/OoRweno4Xk6v+nTgzwe+uT9fjl8v5x9Pd9ffz7eL5PL0/fxz+cLvKy5TqgsouD/XF1Iop39vvlzlH09PnXwlXwb5xOTrvnzw5L1VwBkAKi3/9YAANXCmmAZAjOR4HxCFQh4AHElkHyDqAw+AoADggwjxaJJXAIiqAuJokuYlAvlAIY4+N43bLnuqY5oTOQdiGimOHntPDhik3+NRga/EIKbBWQ2sb8I+wIut1MjEwIcl5KMGUadB1mYNqbTS2gZUkrFUc6UEAEE1yAAoqgHnoYyFVJmkgEQn63RddW5XktJ95GdNlAHd8mpAZxKimxoQjNPKT6BBDfBuBDAV4EPN5MQCMsh0La36ew2o65VmQOfD/762DdDScBYgINMKqBOggkx75yYn5D0VecxcUUIAyikgTICI4yrRAgoK09rmVkCGjUlrI5UJgKsvy2QSiGvVsCcLQJRTAE9R8qiYtPwNAHO0rnzpAB4lTtv3SGotpoQAMtVSpIDyIFQmBlWUae0qbAGQo9NmsnAUaSi2MS19BnOUpyihmaUA63SEJm1zlFG5qoop1bD3VYpT9UENpZncATKO68cAWaiOy4wmH3FUZ1Aw69Jb4LbH3Lp/rSoKrCZdLrIZpNJ4vrefWM7VVpDbuda5aMLkKKAxZyeEbhuoC2iQzDojmHFtzV73pUAJFauyZQzR8gm02rspbRlqCHMlwYHFxW4OoW3u21VR2gbZ5HEVSbadW08a4PvJ21mSof2L/Oivx+xXg8SkQNq82zuZ5NFjXpenPeI4c3BY2bqdA7EbqETIA42JOftoGAqYPbpFB0OEBE+IyZ4oU4ZE8Pa4lyJce5wNkVR4DJh6vPazCojs7BFa5SOUN3NNywRuhq2IO3m0wPgWvU4e0Sy0TtvJo3MVT1cMCdq/rir990G+xDZelffg+6kdGzt5lN/UstnJF8DibLvQMt9AfD56BfO+vD683ffcnx4fr9dF/f/2fkhfXe+W+PNf);lineShape=1;fontSize=14;shadow=0;fontStyle=0;fillColor=#f5f5f5;fontColor=#333333;strokeColor=#666666;" vertex="1" parent="1">
                    <mxGeometry x="750.3478675660785" y="387.84815629607147" width="16.878006639435853" height="30.707148629043104" as="geometry"/>
                </mxCell>
                <mxCell id="69" value="" style="shape=stencil(lVfLbhsxDPyavRKSqBfPafofAeLURl07cNw2+ftyu5C9ouwJcluvOF4OOXxo4oe37dPrZgru7Xw6/tz83T2ftxN/m0LYHbab0+6sTxM/TvzwcjxtfpyOvw/Py+/Xp9lyfvp1/DP/w/uC40Q+zKjgPpY3gYL8f/F9sd/vDiv7EKnmzt4HcgkAHLnaA4RqvQ/wmYLxSCgXAOB23ADRU3AAECj1HBJT8RAgsQPkTBF9QaOUOkCpFCIA6HHvUq3kAOnAVKUDSGysbgK4kOMecAn0TUCMVPrEiQYaJC4V8n2UqrTc3wTU1IRwiRKTB2GtpR1fAAGS1iCKtwAPAOJtORRPwgDAFGUAAA6SqBTrkkMuFSpsARGoVaRRXAEEAyTYPCTEQYawRvIoSupSsoACxDeTNl9IFBAHDWuyACSNOXHZAgri4AfxJcqgVar4TIkqICK1aokOACSNuYCKDWsCYVUAG9IMpaGAPEgDzYeaB0CAYa1D51NAAF1DHLHJtFYcAoSWphUATSDVkmmV8xcAaVWrH0oUcqhUBtJQfDLIm4nRBHI6d51FCCo5GTqZign79DVAFjtGtaYicCml1kpXM6sCuUZnW98qDvf2mdLrdQ41IDGvO33NqVwYiEM5DJOd0WSnOKwODLTkKPb+zLsJIDDoQpefjFYTa6/blQM54Pb11frGwJ9iR4PuhwwWSu/t8NE3HhBQBqZ2PDGyDy3ezd7BFUAZm6bqKKEER8ps7OHKnW13cXBL0ogavp+UgLQiXNmjBGv+o/UHVDGHtkxc7VH8mW1JOihQju34ml/EV688wRl71IV4GJq+bff37L90pfrcXh+u97eX3X6/XP/W5/a+p6+WuyI//gM=);lineShape=1;fontSize=14;shadow=0;fontStyle=0;fillColor=#f5f5f5;fontColor=#333333;strokeColor=#666666;" vertex="1" parent="1">
                    <mxGeometry x="775.6758069287348" y="382.43670842907204" width="8.173531034848565" height="31.072382681073805" as="geometry"/>
                </mxCell>
                <mxCell id="70" value="" style="shape=stencil(7VnLctswDPwaXzEgwec5Tf8jM3EaT9M446Svvy9UD10RlFbOrYfcHGVXBIEFCFA7uXl9vHvZ7zy/vp2OX/c/D/dvjzv5tPP+8Py4Px3e9NdObndy83A87b+cjt+f789/v9xNyOnXt+OP6Q2/zjwmHyaS59/nBxKour9PPp/xT4fnGV4o+g7vK6W4jk/kS4+PxHkdX6jkHu8oyTreRUr9BlyinNYJ+j6J/Qq+rblMEMrBbtkDF+meHfc+3TCpUEgdIQTKwKniiHuTohBXQAgkfdhiolIAoVqTYmiRXyQET7UPdMjEiKDKiNZLBbg1MgW2cchgBbW4mEgHCgFolSlLT2ASYFKKzeIZoYI4ZEfOEDw5EOmcKJl8kBb75fzRhJZhBUQI5PpIa0pV4NYSbUpXEqBuxUvtF4BhU3x0Bp9AECa82QB5/P7c5wJTwfYbZTNF5NBEIgbvQaopPls8yuWSyVl7mCHeVMgNfGnLX2mPVi+L96jCa4m39kRQ4Uu15ZRbXq/h/bv0UG1t3NBbaXJveHUYsifb+LqyFYDUGyRaXAGhsiXocYBSssbmkcsWhAqIQa1U+5jVQh6Y5PgishkjIZtqO5AuhNqK5RohOUuIyE21mTwjFEQolAdCBdJWgqmlEwHkTh1yczIJraDJXy0BqbUm21BNbgByVUIyKxR4Li8SoPpSq7cXQoYnzsKmc6v517o1k+BIu2gJDhTtScyDSSghJjEPBEGRHuWdWy9wbQJpnQFeWs7RiFNuLAMVJ7U5a/WJIL9W251Pr0AmDQPDZCQqZSpOMzAwPhDV72UoNHCJbDuArU2k5sVr3TT0DFuBeDfBUen1OjWKuC0x/bweQgkdc9H2MSL4IA22tXUZdwI6RfV7yDAMH50nt1bro/Pc/Zedp9GDxwmj9pukbwmx9n5n7EmtCqwmQB8AnU4DUrSzCvIRFgmdf9kQEhzJM1sN6QqoG0lDkfABqi654QrMUwayi3mY4RM5RBCKpjI6eGkWNK6GkNtIsHb5YvYQSiuua9c7ZoifLpBALVIDQr/pxLA71y2aYhELnHr8sIL6DTXbGlcTh4DFN6VXtW7N6DKyUjBx4PZkmZAWxIc6WyetU57dODkQaecpGIIey6i1aNe/M7EiKQ3HvgbSA2EEe3skCV7wiq15GgPGF9QDXuD77WWtzhagqHqK2eJRW64akgGPJNGyZG4PxLMb9gvs4Sb5uT8hfiFeIMvYFmzFo0N5mEEkwnGT20wzwwuI13s/cGzj9ce/rykPh6en88eY+f/t1xd9dP5yI7d/AA==);lineShape=1;fontSize=14;shadow=0;fontStyle=0;fillColor=#f5f5f5;fontColor=#333333;strokeColor=#666666;" vertex="1" parent="1">
                    <mxGeometry x="778.3088206067766" y="390.11860744371666" width="30.618578184325315" height="36.01231233894555" as="geometry"/>
                </mxCell>
                <mxCell id="71" value="" style="shape=stencil(lVfZbttADPwavxJc7v2cpv8RIE5t1LUDx73+vlSFlbWUNEbedMxQPIernX/6OLy873fCH7fr5fv+9/H1dtj5LzuR4/mwvx5verXzzzv/9Ha57r9dLz/Pr+P9+8uAHK5+XH4NFv6MPEc+DCThv+ODGqnG/0++jvjT8TzHCw3v5gSmWrYJ+gWXO0IJJHmb4IVK6ghZCcClECm5jpCEOGwTYiEXO0KozclVQqpUakfwidhvEwqT544gniLIUlEH+jpoojMg1NpCnFxqPq7jC0npYyYBOaqZghi8R/YTxWjxDPCRcjL+V2Q/2gR5CggfKPf4qa228KaJhBzGG/8dBYRX//sWYioo/5GKN3iP7CdKFs+gpbW+kS0e1auQjwYP86MNbe1HFG+lFE0+GdW3Us0Gn5Fu8RTfvcCwYLXZuzecwwGIxWeBCV0MjAMBaMGyM/gHDVGCxSP7qmjWvkP+R/Ji4k1IsIL1xxNjfOrta71Qg4b2+XtDJCwoLAaPJF3x0Q5wxAL3Oby2V59/F6iCAgxrtFcgmTR1lZC1Ic0WK62G62vPtaNAI0TNKYhB16gRiTTJ6vquTxT6Kc65teH6aSI0B6bTRG6LbX3ute3MeeWBS20NTfgK59i3tTjDo7LJYm8wVl5pYzj/ACizo+gWAYBB4GZtho8gQdrGC38cGBwm6SumypfAZmI7l4pHh7OFrqtSJiB03Lyd4ZGwMwWTT121IP+8aLjUBnWjXp88gT/E68X9uP92PJ3Gv4X5e/t7oI/GXwv//A8=);lineShape=1;fontSize=14;shadow=0;fontStyle=0;fillColor=#f5f5f5;fontColor=#333333;strokeColor=#666666;" vertex="1" parent="1">
                    <mxGeometry x="801.4360125420892" y="392.4742391723405" width="21.183236373242153" height="26.09143262154339" as="geometry"/>
                </mxCell>
                <mxCell id="72" value="" style="shape=stencil(lZdLctswDIZPoy2GBJ9Yp+k9MhOn9tS1M47TNrcPVFUOCdp/JjtZxifiDXAKdy/bh+fNxO7lfDr+3PzZPZ63U/g2Me8O281pd9anKdxP4e7peNr8OB1fD4/L7+eHWXJ++nX8PX/h78J5T7nMFLu35Y2jKv9efF/k97tDK5+JcyefKbvb8uxJuJP3kaoHQCZJHcBMDgAhEvcWBE8p3AZioBA6IDLVeBtIgWrtgJTIASBHe0IuxEClEohjB5RKEYShqomuA2olnwAgFPsTJK2RvArIxcQLIJSQSpe/L0AhzxCovQ2SqQJAHKVogQSMFk+FLRBA4ETjMAAMkk/iWi0N4JFbLxq3JyCjK7nRBnSCrAq0XqoQqINbK3KrkIyRxkB2FogoDpXKAGSQfPP3BqAioxPVYAFBJ0TyxksaGdD5hNcu1J6AcsmvTmyAgrzkrgAJqKQVl6MFUPLNQN9bNTUElygPuZSRDZ64WiBit+ah4hidMDTjuUQLLNH/86YFcPKloeICsqGufa4tUQRci0MBTcA7tyZnE2oHavTrRI12LDbfuD7mhNgckSiDdCpDSeiYi2CQZp3kfSh0kBZghM52s5/oqE6gSnV7iD2gy0AANgSm0rtJP+HRBhQo9/mnC03BO5nvM1xXJoaxJunj4HXag3RKNjUyXBKdXR08rJ8h8VQ9UNBura0P8QKSTj8WjHgE1e/tMHRrg7oeLJJqxD3aPUfd0SKZ7Bj8pL7WvGrEUXenmKzuaD5Rto5EfVeTLFvlUenqTYTFyGeUxF+9uXwqrw8f16Sn3X6/3LLa/+21Sl8tV7Jw/w4=);lineShape=1;fontSize=14;shadow=0;fontStyle=0;fillColor=#f5f5f5;fontColor=#333333;strokeColor=#666666;" vertex="1" parent="1">
                    <mxGeometry x="824.436495701593" y="365.43415951524" width="9.629480779075038" height="54.42473029983353" as="geometry"/>
                </mxCell>
                <mxCell id="73" value="" style="shape=stencil(lZbdUttADIWfxrdnpNX+XlN4D2YIjYc0YUKg5e3R1mOIlkSd3vnv88pHR8c7yc3L9v55MwV6OR0PT5vf88NpO8mPKYR5v90c55MeTXI7yc3j4bj5eTy87h+W8+f7/mQ/+nV462/4s3CNUEKnAr0vV2JCan+v3C3Abt6fAxmlGCAJWnWAhsoGyIKaXSCJAUoEeyUltGyAqis4QG2IFmiMFh1AVbIltYLE14FCyFYlJgLRdSITJNolGtiRKRGq7ZzqQE4jooBtI2oFO4BUkAVK84EMsrrmBhIHKGMjUkV1VIphXCGqW5zO6W1pFggITklaQK4G0CKzs0KuaMkCGSE53lARrZlU6OB8dG+TXUFbGfyBoGFG6V8zykPjCLFcB87c/OkNWoPh8hI6MBbQofJa3UdysGtbX3FZJh36YUg1GJySeqzYkr6i53KrBeXbjFYnBjQa6wBofHozmhCHoVZZHTN1QP4HkDima09Dx0whrm7+BBKyE0yc1rQ+i43ofHRBtW4tDHHaEMYwzrym7cXn1ar2AxKvKXLteWuLSODg1ZNsYgRfUc0TWz831xQcR4GYkZweBxmBBHEmRz0x/Bm0AY6garpBofHfpgdfO47HebdbNizn98cdil5adjdy+wE=);lineShape=1;fontSize=14;shadow=0;fontStyle=0;fillColor=#f5f5f5;fontColor=#333333;strokeColor=#666666;" vertex="1" parent="1">
                    <mxGeometry x="826.8631549603631" y="332.8554605684616" width="2.51462274023811" height="2.522336761604606" as="geometry"/>
                </mxCell>
                <mxCell id="74" value="" style="shape=stencil(rVjZbhsxDPwavxISqYvPafsfAeI0RtM4cNLr70vV1WbFtSco0Lf1LsfiMRxR2snNy8Pt837H4eX1dPyy/3G4e33YyYcd8+HpYX86vNrTTj7u5Ob+eNp/Ph2/Pd2dfz/fdsv+9PX4vf/DzzOuUJUO4vDr/EKUWv3z5tPZ/vHwtLKPQjFOgNQoFQBQqjMgV+J0HWAuhTQBSqYSrgMkEtcJUJlCA4BKbXapBcog6JSGAwugjaguAnKkNLukQsIA0KjMQWuiCNJayvi8AJgYBF1l1HUVQwAutUhhXuHtzWVAoaZzHQJVsIJuVjBqFAUAoTrXIQl0yZL4N8QBYKUi0KU6uxQbKaCGJVFmLsUIudSsDm3OEkkGdTPys7NnkNRq1JvtYyDFTCouZBMFwKRiK8whcxpJuEzusClbJgV1NkCcuyEVqEpJiWfqpUoZZNVEi8UDUJbsc5jbx/4CUa+HmPwKDVDPREazBwjQPQNw9FnKaAVrH/V1QMraAS6GhAFpkyUZwnYN4PafxNQAvbvHxQNQP1hOqnMpkgK2diLIBoBWUAqbGBhRQzeVZkhv64esPq1w/wleZHrh8ApuS+yJxgBxdSiYGur30ISFz/prC2i4RZNz6Z0WLaO/1iKA2JqJNy2aEZeSF+MuZAggfg/tOoLIJ3686jqCRUCdSzLo+H8AOXm55wDlvgTfQJGpoB2oeICRFWTVZp8yJynAOaNFH7J5CLjd1I+sQhnwqM92sz8Ke0eNZXM721QSQAliWBxeDT5IMVTHqLaqckMx1DFjLzWwLKDhjUfOl0HGzhJoALURd65yS3AHrXVI1mrqjiBNpfo66zIXXKa2FcIPV5gaJhBuv7LENXSa2eik4v1KmLI7nAjsnt4srhAZHh2M/W4oLg1O0TH56cpaXNDhxG8meZnDL9qHzdZgxyvAvUDs7Hlo1BV71z19BID+hOjtI/bHzVWBEiBq8MQ2lqARfXMiNns0JLGPVxokKQ9pWNkjwRMvLoIvDTbn7f7/wD5Tko3/wJ8yZGGdH7RD/eMtyfv29vB2JXN/eHw83+isv/srHHt1vv6Rj78B);lineShape=1;fontSize=14;shadow=0;fontStyle=0;fillColor=#f5f5f5;fontColor=#333333;strokeColor=#666666;" vertex="1" parent="1">
                    <mxGeometry x="833.3590892919913" y="374.5392051027966" width="17.50078466728837" height="20.32539575877263" as="geometry"/>
                </mxCell>
                <mxCell id="75" value="" style="shape=stencil(7VnLbtswEPwaXxckl8vHOW3/I0CcxmgaB076+vuu6lIWl9aoORbILZE54j5nltSOb14ebp/3u+BeXk/HL/sfh7vXhx1/2IVweHrYnw6v+teOP+745v542n8+Hb893Z3/f76dVk5/fT1+n97w84xzxGkCBffr/EAo5z8PPp2XPx6eFsuZpp8Wyz1lt75cXybdckcOLC8k9u1c15d7R5W79YmqB+sD1dy/X6gCe3yk4jpAyCQCAIl873D05JBJmULp4y/kQQJ8IRd7n2t7sgZIvUnFUURO6/sMIFNOEBBrB6iaZsaAYgER+VCbxQtAwTuEvqyrJ49KSZ3OFvDXyLWwFrYA1AoKkMEk6EOxpTEBNkrDDwBkUrbtqYCE8pBtg9aNDs3Eww4OhVX7wYTV4bDm1i4LAG843QNKwoDSSKUBMiYBJbnYRylJC8N1QLBOi4OZDpG4N4kT7DglRukBumdFAHXaUHGAtcShGXDhYgEbsDQPL8KT0Ptr+3k2SPMMajUy+Z4otcchIFk1UZ8QBWiSat+gsZBHAGmFNscotg68DqhU+vbJlTLwYXpf7/TUPsAkFY9iuDtBKs4y9FsmByhA1YYNgOGIUYTioD8CTJpIq98hc4vbdYCmqc/DlBkQJQWEPkoSqQKn60D2CsgBAmw7RBK0gyqcswDUQAqQAYDyoACjDholhwGGMxQANdTN4+ACUVGqq53gRMsVzFcKKNECYG0ozxgncov0GoDZAiJgPgUYmZZZVtdqI9VhB1zfZlySWVZXG2IIa8H1bdh+ygOYEZUkqvFBtjrIDdW3EaUwVJ9HpVGaxYuGQBKngDwAEi4+N9CGIJ4Z5typR3HxpWIBFeVB+2E4bzCu1jFxSFGuAFIbxldNGgB5o6ffBmA7hWZMTDoRGuorSoZI5PygitoPgCvVANfnYUGG15VaFcJM96Xl8jqAyZkDR4DSLkOPqnajYhJuqrkYdAvo0Vjt4VWfBMBkUaxAMDexvw7wVql1GkdR4mJ7VAdd1NQs9vBaIC+pwWa4VzoHQWVnZz7PMKjjrUngduRfOwyYiUxPDxAQB4nzUOL0cGHGHy0MdDMTfKPquUNVktAOzgqQDoke32q8X1KE90uK/+SSItmjZSlQHRRgEqfcDaMkdljXo2BAUdJpapiv4F0o2/O0krMgH0I75s1EVuBs4p292tRAO2DSMEhrfwAqzo2CZgfggSnaZovkwduDFZ6CS8LKwtyqK8vFqhS6OBhks0DN8VaWCxyPXDv7/psEujY6XZYj4nWWRku7+VlZbqUGZlVVIpjlDG03kUnwns3ZU06CLeIsjyR4xHnjx53N5frH5TvS/eHx8fwZavm7/e6kj87frPjjbw==);lineShape=1;fontSize=14;shadow=0;fontStyle=0;fillColor=#f5f5f5;fontColor=#333333;strokeColor=#666666;" vertex="1" parent="1">
                    <mxGeometry x="852.393150297813" y="365.604992788574" width="49.72379187054685" height="34.04386330733769" as="geometry"/>
                </mxCell>
                <mxCell id="76" value="&lt;span style=&quot;font-size: 14px;&quot;&gt;JAVA IS a synchronuous single-threaded language.&lt;/span&gt;" style="text;align=center;html=1;verticalAlign=middle;whiteSpace=wrap;rounded=0;shadow=0;fontStyle=0;fillColor=#f5f5f5;fontColor=#333333;strokeColor=#666666;" vertex="1" parent="1">
                    <mxGeometry x="376.52" y="580" width="160" height="70" as="geometry"/>
                </mxCell>
            </root>
        </mxGraphModel>
    </diagram>
</mxfile>